<svg width="100" height="100" viewBox="0 0 100 100" fill="none" xmlns="http://www.w3.org/2000/svg">
<path d="M50.0002 94.7917C25.2918 94.7917 5.2085 74.7083 5.2085 50C5.2085 25.2917 25.2918 5.20833 50.0002 5.20833C74.7085 5.20833 94.7918 25.2917 94.7918 50C94.7918 74.7083 74.7085 94.7917 50.0002 94.7917ZM50.0002 11.4583C28.7502 11.4583 11.4585 28.75 11.4585 50C11.4585 71.25 28.7502 88.5417 50.0002 88.5417C71.2502 88.5417 88.5418 71.25 88.5418 50C88.5418 28.75 71.2502 11.4583 50.0002 11.4583Z" fill="#10054C"/>
<path d="M66.6668 53.125H33.3335C31.6252 53.125 30.2085 51.7083 30.2085 50C30.2085 48.2917 31.6252 46.875 33.3335 46.875H66.6668C68.3752 46.875 69.7918 48.2917 69.7918 50C69.7918 51.7083 68.3752 53.125 66.6668 53.125Z" fill="#14263A"/>
<path d="M50 69.7917C48.2917 69.7917 46.875 68.375 46.875 66.6667V33.3333C46.875 31.625 48.2917 30.2083 50 30.2083C51.7083 30.2083 53.125 31.625 53.125 33.3333V66.6667C53.125 68.375 51.7083 69.7917 50 69.7917Z" fill="#14263A"/>
</svg>
