<svg width="95" height="100" viewBox="0 0 95 100" fill="none" xmlns="http://www.w3.org/2000/svg">
<path fill-rule="evenodd" clip-rule="evenodd" d="M9.4758 0.285559C5.52288 1.15854 2.67066 3.39458 1.05282 6.8883L0 9.1625V50.0407V90.919L1.05282 93.1932C2.20816 95.6877 4.52201 97.98 7.1213 99.2059C8.63075 99.9176 10.679 99.9971 27.6072 99.9999C45.4717 100.003 46.4635 99.9594 47.3673 99.1378C48.5628 98.05 48.6292 95.6577 47.4924 94.623C46.753 93.9499 44.7847 93.8713 28.7038 93.8713C8.94691 93.8713 8.35433 93.7959 6.9718 91.1075C5.98448 89.1876 5.98448 10.8939 6.9718 8.974C7.75408 7.45242 10.142 6.21018 12.2838 6.21018C13.7268 6.21018 13.9111 6.38868 15.1432 8.98082C16.6563 12.1648 18.7452 14.2205 20.8707 14.6166C21.6832 14.7678 27.5471 14.8291 33.9015 14.7524L45.4549 14.6129L47.0507 13.3879C47.9508 12.6976 49.3135 10.8662 50.1761 9.18839C51.5907 6.43773 51.8184 6.21336 53.1964 6.212C55.0568 6.20972 56.9862 7.18944 58.2152 8.76053C59.1343 9.93555 59.1583 10.4084 59.1583 27.3919C59.1583 44.212 59.1899 44.8492 60.0616 45.7258C61.2228 46.8936 63.417 46.8936 64.5782 45.7258C65.4494 44.8497 65.4815 44.212 65.4815 27.6404C65.4815 8.46711 65.3437 7.34932 62.5755 4.09723C61.6894 3.0562 59.9613 1.77716 58.6136 1.1649L56.2225 0.0784427L33.6395 0.00713283C21.2189 -0.0319286 10.3452 0.0934314 9.4758 0.285559ZM44.2535 6.80064C44.2535 8.34084 43.2707 8.48119 32.4684 8.48119C21.3472 8.48119 21.2189 8.45984 21.2189 6.62714C21.2189 6.38505 26.0431 6.21018 32.7362 6.21018C41.885 6.21018 44.2535 6.33145 44.2535 6.80064ZM65.1527 51.8003C53.6905 54.7322 45.7585 65.6113 46.6311 77.203C47.5981 90.0501 57.853 99.8164 70.4339 99.8713C77.5349 99.9027 82.8947 97.7043 87.8372 92.7344C100.588 79.9118 95.6031 58.3735 78.5286 52.5075C74.9483 51.278 68.5239 50.9382 65.1527 51.8003ZM76.469 58.4162C89.2297 62.8315 92.9225 78.5706 83.4706 88.2574C74.0526 97.9096 58.1926 94.1842 53.6783 81.2595C52.3829 77.5504 52.6508 71.9369 54.2953 68.3369C56.391 63.7495 60.9568 59.6567 65.6107 58.1941C68.4995 57.2862 73.4975 57.3884 76.469 58.4162ZM68.6431 60.7145C68.1327 61.2278 67.7398 62.2284 67.7398 63.015C67.7398 64.0075 67.3464 64.7396 66.3686 65.5672C64.5009 67.1474 63.5994 69.0609 63.5994 71.4455C63.5994 75.0364 66.2502 78.0187 70.0085 78.6573C71.3228 78.8808 71.8047 79.1815 71.8047 79.7778C71.8047 80.7553 70.5902 81.1391 67.471 81.1473C65.762 81.1518 64.963 81.3834 64.3659 82.047C62.6541 83.9492 63.9499 87.0583 66.4548 87.0583C67.5745 87.0583 67.7398 87.2295 67.7398 88.3877C67.7398 89.8284 69.4895 91.6003 70.9122 91.6003C72.2564 91.6003 73.6258 90.0937 73.9113 88.3C74.0933 87.1568 74.7504 86.02 75.8922 84.8713C78.8628 81.884 78.8669 77.7021 75.9017 74.7203C74.7039 73.5153 73.6511 72.9226 72.3345 72.7109C70.382 72.3966 69.2637 71.535 69.7601 70.7269C69.9204 70.4662 71.3332 70.2528 72.8995 70.2528C76.3317 70.2528 78.1279 69.1604 78.1279 67.0733C78.1279 65.6444 76.3534 63.8939 74.9054 63.8939C74.3846 63.8939 74.063 63.5705 74.063 63.0468C74.063 62.5808 73.6416 61.6611 73.1267 61.0029C71.9818 59.5386 69.943 59.4073 68.6431 60.7145ZM21.9664 81.9844C20.9741 83.0867 21.0157 85.37 22.045 86.3066C22.7609 86.9583 24.199 87.0583 32.8591 87.0583C42.6687 87.0583 42.8597 87.0401 43.5503 86.0486C43.9369 85.4935 44.2535 84.6192 44.2535 84.1059C44.2535 83.5927 43.9369 82.7184 43.5503 82.1633C42.8597 81.1713 42.6714 81.1536 32.7805 81.1536C23.6019 81.1536 22.648 81.2267 21.9664 81.9844Z" fill="#7058EE"/>
</svg>
