<svg width="66" height="65" viewBox="0 0 66 65" fill="none" xmlns="http://www.w3.org/2000/svg">
<path d="M14.3462 61.6145C13.2086 61.6145 12.1522 61.3437 11.2042 60.802C9.11856 59.5833 7.92676 57.1187 7.92676 54.0583V15.8708C7.92676 8.99163 13.5337 3.38538 20.4136 3.38538H46.552C53.432 3.38538 59.0389 8.99163 59.0389 15.8708V54.0312C59.0389 57.0916 57.8471 59.5562 55.7614 60.775C53.6758 61.9937 50.94 61.8583 48.2585 60.3687L35.0403 53.0291C34.2548 52.5958 32.7109 52.5958 31.9253 53.0291L18.7072 60.3687C17.2445 61.1812 15.7547 61.6145 14.3462 61.6145ZM20.4407 7.44788C15.8089 7.44788 12.0168 11.2395 12.0168 15.8708V54.0312C12.0168 55.6291 12.4773 56.8208 13.2899 57.2812C14.1025 57.7416 15.3755 57.6062 16.7569 56.8208L29.9751 49.4812C31.9795 48.3708 35.0132 48.3708 37.0176 49.4812L50.2358 56.8208C51.6172 57.6062 52.8903 57.7687 53.7028 57.2812C54.5154 56.7937 54.9759 55.602 54.9759 54.0312V15.8708C54.9759 11.2395 51.1838 7.44788 46.552 7.44788H20.4407V7.44788Z" fill="#9791B7"/>
</svg>
