<svg width="50" height="50" viewBox="0 0 50 50" fill="none" xmlns="http://www.w3.org/2000/svg">
<path fill-rule="evenodd" clip-rule="evenodd" d="M4.53009 0.146655C2.79926 0.531293 1.22107 1.81456 0.502328 3.42164C-0.00879511 4.56433 -0.0208066 4.77071 0.00966159 11.854L0.0379814 18.4069L0.30116 19.1275C0.936695 20.8672 2.29712 22.2 4.00978 22.7609L4.72539 22.9952H11.5124H18.2994L19.015 22.7609C20.7619 22.1888 22.1801 20.7711 22.7524 19.0247L22.9868 18.3093V11.5244V4.73957L22.7524 4.02418C22.1913 2.31205 20.8581 0.952052 19.1178 0.316715L18.397 0.053619L11.7565 0.0350705C6.52448 0.0204269 4.9917 0.0440519 4.53009 0.146655ZM31.5315 0.1571C29.3745 0.621888 27.5452 2.46844 27.0887 4.64194C26.8771 5.64922 26.8771 17.3996 27.0887 18.4069C27.5502 20.6042 29.3824 22.4358 31.5804 22.8972C32.588 23.1087 44.342 23.1087 45.3496 22.8972C47.5477 22.4358 49.3798 20.6042 49.8414 18.4069C50.0529 17.3996 50.0529 5.64922 49.8414 4.64194C49.3798 2.44462 47.5477 0.613004 45.3496 0.151633C44.3708 -0.0537673 32.4886 -0.0490813 31.5315 0.1571ZM18.0064 4.09427C18.4791 4.31236 18.7767 4.62144 18.9783 5.1039C19.2059 5.64835 19.2059 17.4005 18.9783 17.945C18.7767 18.4274 18.4791 18.7365 18.0064 18.9546C17.64 19.1236 17.2381 19.1349 11.5337 19.1369C6.2616 19.1388 5.40331 19.119 5.08984 18.988C4.60723 18.7865 4.29806 18.489 4.0799 18.0164C3.91086 17.6501 3.89953 17.2483 3.89748 11.5457C3.89562 6.27529 3.91545 5.41727 4.0465 5.1039C4.24806 4.62144 4.54561 4.31236 5.01836 4.09427C5.38495 3.92519 5.78475 3.91406 11.5124 3.91406C17.24 3.91406 17.6398 3.92519 18.0064 4.09427ZM45.1387 4.20263C45.337 4.33687 45.6195 4.61871 45.7662 4.82889L46.0332 5.21099V11.5244V17.8379L45.7662 18.22C45.6195 18.4301 45.337 18.712 45.1386 18.8462L44.7781 19.0903H38.4638H32.1496L31.7674 18.8234C31.5571 18.6766 31.2752 18.3943 31.1409 18.196L30.8968 17.8356L30.8695 11.7479C30.8517 7.75966 30.8773 5.53032 30.9437 5.28362C31.0656 4.83094 31.7231 4.14133 32.1536 4.01451C32.3287 3.96297 35.0904 3.93183 38.6187 3.94159L44.7782 3.95857L45.1387 4.20263ZM4.53009 27.0908C2.79926 27.4755 1.22107 28.7588 0.502328 30.3658C-0.00879511 31.5085 -0.0208066 31.7149 0.00966159 38.7982L0.0379814 45.3511L0.30116 46.0717C0.936695 47.8114 2.29712 49.1442 4.00978 49.7051L4.72539 49.9394H11.5124H18.2994L19.015 49.7051C20.7619 49.133 22.1801 47.7153 22.7524 45.9689L22.9868 45.2535V38.4686V31.6838L22.7524 30.9684C22.1913 29.2562 20.8581 27.8962 19.1178 27.2609L18.397 26.9978L11.7565 26.9793C6.52448 26.9646 4.9917 26.9882 4.53009 27.0908ZM31.5315 27.1013C29.3745 27.5661 27.5452 29.4126 27.0887 31.5861C26.8771 32.5934 26.8771 44.3438 27.0887 45.3511C27.5502 47.5484 29.3824 49.38 31.5804 49.8414C32.588 50.0529 44.342 50.0529 45.3496 49.8414C47.5477 49.38 49.3798 47.5484 49.8414 45.3511C50.0529 44.3438 50.0529 32.5934 49.8414 31.5861C49.3798 29.3888 47.5477 27.5572 45.3496 27.0958C44.3708 26.8904 32.4886 26.8951 31.5315 27.1013ZM18.0064 31.0385C18.4791 31.2566 18.7767 31.5656 18.9783 32.0481C19.2059 32.5925 19.2059 44.3447 18.9783 44.8891C18.7767 45.3716 18.4791 45.6807 18.0064 45.8988C17.64 46.0678 17.2381 46.0791 11.5337 46.0811C6.2616 46.083 5.40331 46.0632 5.08984 45.9322C4.60723 45.7307 4.29806 45.4332 4.0799 44.9606C3.91086 44.5943 3.89953 44.1925 3.89748 38.4899C3.89562 33.2195 3.91545 32.3615 4.0465 32.0481C4.24806 31.5656 4.54561 31.2566 5.01836 31.0385C5.38495 30.8694 5.78475 30.8583 11.5124 30.8583C17.24 30.8583 17.6398 30.8694 18.0064 31.0385ZM45.1387 31.1468C45.337 31.2811 45.6195 31.5629 45.7662 31.7731L46.0332 32.1552V38.4686V44.7821L45.7662 45.1642C45.6195 45.3743 45.337 45.6562 45.1386 45.7904L44.7781 46.0345H38.4638H32.1496L31.7674 45.7676C31.5571 45.6208 31.2752 45.3385 31.1409 45.1402L30.8968 44.7798L30.8695 38.6921C30.8517 34.7039 30.8773 32.4745 30.9437 32.2278C31.0656 31.7751 31.7231 31.0855 32.1536 30.9587C32.3287 30.9072 35.0904 30.876 38.6187 30.8858L44.7782 30.9028L45.1387 31.1468Z" fill="#9791B7"/>
</svg>
