<svg width="80" height="80" viewBox="0 0 80 80" fill="none" xmlns="http://www.w3.org/2000/svg">
<path d="M58.167 75.8333C54.4003 75.8333 50.4337 74.9333 46.3337 73.2C42.3337 71.5 38.3003 69.1667 34.367 66.3333C30.467 63.4667 26.7003 60.2667 23.1337 56.7667C19.6003 53.2 16.4003 49.4333 13.567 45.5667C10.7003 41.5667 8.40033 37.5667 6.76699 33.7C5.03366 29.5667 4.16699 25.5667 4.16699 21.8C4.16699 19.2 4.63366 16.7333 5.53366 14.4333C6.46699 12.0667 7.96699 9.86666 10.0003 7.96666C12.567 5.43332 15.5003 4.16666 18.6337 4.16666C19.9337 4.16666 21.267 4.46666 22.4003 4.99999C23.7003 5.59999 24.8003 6.49999 25.6003 7.69999L33.3337 18.6C34.0337 19.5667 34.567 20.5 34.9337 21.4333C35.367 22.4333 35.6003 23.4333 35.6003 24.4C35.6003 25.6667 35.2337 26.9 34.5337 28.0667C34.0337 28.9667 33.267 29.9333 32.3003 30.9L30.0337 33.2667C30.067 33.3667 30.1003 33.4333 30.1337 33.5C30.5337 34.2 31.3337 35.4 32.867 37.2C34.5003 39.0667 36.0337 40.7667 37.567 42.3333C39.5337 44.2667 41.167 45.8 42.7003 47.0667C44.6003 48.6667 45.8337 49.4667 46.567 49.8333L46.5003 50L48.9337 47.6C49.967 46.5667 50.967 45.8 51.9337 45.3C53.767 44.1667 56.1003 43.9667 58.4337 44.9333C59.3003 45.3 60.2337 45.8 61.2337 46.5L72.3003 54.3667C73.5337 55.2 74.4337 56.2667 74.967 57.5333C75.467 58.8 75.7003 59.9667 75.7003 61.1333C75.7003 62.7333 75.3337 64.3333 74.6337 65.8333C73.9337 67.3333 73.067 68.6333 71.967 69.8333C70.067 71.9333 68.0003 73.4333 65.6003 74.4C63.3003 75.3333 60.8003 75.8333 58.167 75.8333ZM18.6337 9.16666C16.8003 9.16666 15.1003 9.96666 13.467 11.5667C11.9337 13 10.867 14.5667 10.2003 16.2667C9.50032 18 9.16699 19.8333 9.16699 21.8C9.16699 24.9 9.90033 28.2667 11.367 31.7333C12.867 35.2667 14.967 38.9333 17.6337 42.6C20.3003 46.2667 23.3337 49.8333 26.667 53.2C30.0003 56.5 33.6003 59.5667 37.3003 62.2667C40.9003 64.9 44.6003 67.0333 48.267 68.5667C53.967 71 59.3003 71.5667 63.7003 69.7333C65.4003 69.0333 66.9003 67.9667 68.267 66.4333C69.0337 65.6 69.6337 64.7 70.1337 63.6333C70.5337 62.8 70.7337 61.9333 70.7337 61.0667C70.7337 60.5333 70.6337 60 70.367 59.4C70.267 59.2 70.067 58.8333 69.4337 58.4L58.367 50.5333C57.7003 50.0667 57.1003 49.7333 56.5337 49.5C55.8003 49.2 55.5003 48.9 54.367 49.6C53.7003 49.9333 53.1003 50.4333 52.4337 51.1L49.9003 53.6C48.6003 54.8667 46.6003 55.1667 45.067 54.6L44.167 54.2C42.8003 53.4667 41.2003 52.3333 39.4337 50.8333C37.8337 49.4667 36.1003 47.8667 34.0003 45.8C32.367 44.1333 30.7337 42.3667 29.0337 40.4C27.467 38.5667 26.3337 37 25.6337 35.7L25.2337 34.7C25.0337 33.9333 24.967 33.5 24.967 33.0333C24.967 31.8333 25.4003 30.7667 26.2337 29.9333L28.7337 27.3333C29.4003 26.6667 29.9003 26.0333 30.2337 25.4667C30.5003 25.0333 30.6003 24.6667 30.6003 24.3333C30.6003 24.0667 30.5003 23.6667 30.3337 23.2667C30.1003 22.7333 29.7337 22.1333 29.267 21.5L21.5337 10.5667C21.2003 10.1 20.8003 9.76666 20.3003 9.53332C19.767 9.29999 19.2003 9.16666 18.6337 9.16666ZM46.5003 50.0333L45.967 52.3L46.867 49.9667C46.7003 49.9333 46.567 49.9667 46.5003 50.0333Z" fill="#10054C"/>
</svg>
