<svg width="75" height="65" viewBox="0 0 75 65" fill="none" xmlns="http://www.w3.org/2000/svg">
<path fill-rule="evenodd" clip-rule="evenodd" d="M27.9979 0.106132C25.5138 0.618403 23.118 2.31925 21.8492 4.47107C21.6178 4.8634 21.0688 6.24071 20.6293 7.53187L19.83 9.87931L13.5125 9.96124L7.19499 10.0432L6.14046 10.4496C3.25308 11.5623 1.33749 13.5168 0.358186 16.3491L0 17.3851V37.5569V57.7288L0.410271 58.783C1.62325 61.8998 3.82555 63.9057 6.89718 64.6912C8.0792 64.9933 8.73895 65 37.4609 65C66.1828 65 66.8426 64.9933 68.0246 64.6912C69.7548 64.2486 70.9949 63.5406 72.2675 62.2682C73.5402 60.996 74.2484 59.7563 74.6911 58.0265C74.9906 56.8556 75 56.2267 75 37.4787C75 18.7308 74.9906 18.1019 74.6911 16.931C73.892 13.8073 71.8278 11.5888 68.5905 10.3739C67.7851 10.0715 67.3006 10.044 61.4093 9.96453L55.0918 9.87931L54.2925 7.53187C53.3828 4.86027 52.9706 4.08374 51.7852 2.80838C50.8383 1.78978 49.6858 1.04139 48.1348 0.438107L47.0803 0.0279465L37.8519 0.00245838C32.7763 -0.0114586 28.342 0.0351396 27.9979 0.106132ZM46.4653 5.18365C47.428 5.47074 48.3178 6.1938 48.7511 7.04071C48.9338 7.39786 49.5278 9.01848 50.0712 10.6421C50.6146 12.2657 51.1724 13.7668 51.3108 13.9781C51.4492 14.1892 51.856 14.4954 52.215 14.6583C52.823 14.9343 53.3326 14.9548 59.6828 14.9579C67.4958 14.9618 67.5094 14.9637 68.751 16.2048C70.0866 17.5401 69.9948 15.9706 69.9948 37.4787C69.9948 58.9869 70.0866 57.4174 68.751 58.7527C67.3944 60.1087 70.2286 59.9961 37.4609 59.9961C4.69317 59.9961 7.52737 60.1087 6.1708 58.7527C4.83519 57.4174 4.92701 58.9869 4.92701 37.4787C4.92701 15.9706 4.83519 17.5401 6.1708 16.2048C7.41241 14.9637 7.42602 14.9618 15.239 14.9579C21.5449 14.9548 22.1021 14.9327 22.6947 14.6636C23.5591 14.2713 23.8145 13.7925 24.872 10.583C25.9495 7.31264 26.3118 6.54955 27.0932 5.90248C28.2014 4.9849 28.2943 4.97646 37.3933 4.96457C44.2692 4.9555 45.8263 4.99319 46.4653 5.18365ZM35.3493 17.5607C32.7014 17.9616 30.7132 18.5971 28.6151 19.713C23.7377 22.3069 20.26 26.9544 19.0652 32.4749C18.6654 34.3215 18.6654 38.1341 19.0652 39.9807C20.5026 46.6225 25.2926 51.9837 31.62 54.0326C33.7778 54.7313 34.9889 54.9141 37.4609 54.9141C38.7638 54.9141 40.1948 54.8218 40.8238 54.6972C48.4528 53.1865 54.096 47.6565 55.8673 39.9554C56.2306 38.3749 56.2286 34.1094 55.8637 32.5002C54.1503 24.9473 48.6657 19.4681 41.1895 17.8403C40.0757 17.5979 36.2983 17.417 35.3493 17.5607ZM61.4625 20.1852C59.8844 20.8723 59.5117 22.9696 60.748 24.2057C61.7626 25.2199 63.2113 25.2199 64.226 24.2057C66.1672 22.2648 63.9832 19.0875 61.4625 20.1852ZM40.8238 22.9034C45.9141 24.297 49.4859 27.9075 50.8477 33.0353C51.2761 34.6489 51.2521 37.918 50.7996 39.5898C49.4467 44.5875 45.8229 48.2103 40.8238 49.5629C39.1516 50.0153 35.8816 50.0392 34.2676 49.6109C28.2261 48.0075 24.1372 43.1156 23.7421 37.0187C23.4907 33.1415 24.9418 29.3662 27.7696 26.539C29.8301 24.479 32.1734 23.2362 35.0365 22.6848C36.504 22.4021 39.391 22.5112 40.8238 22.9034Z" fill="#10054D"/>
</svg>
