<svg width="70" height="76" viewBox="0 0 70 76" fill="none" xmlns="http://www.w3.org/2000/svg">
<path fill-rule="evenodd" clip-rule="evenodd" d="M12.9257 0.243107C9.6439 0.949502 6.86086 3.75594 6.16629 7.05928C6.01431 7.78214 5.94715 9.0562 5.94537 11.2508L5.94284 14.4036H2.97142H0V17.3711V20.3385H2.97142H5.94284V27.757V35.1756H2.97142H0V38.143V41.1104H2.97142H5.94284V48.529V55.9476H2.97142H0V58.915V61.8824H2.97142H5.94284L5.94537 64.8869C5.94715 66.9509 6.01639 68.2165 6.16629 68.93C6.86844 72.2696 9.65593 75.0533 13 75.7545C14.5616 76.0818 61.3582 76.0818 62.9198 75.7545C66.2639 75.0533 69.0514 72.2696 69.7535 68.93C70.0822 67.3668 70.0822 8.62252 69.7535 7.05928C69.0514 3.71974 66.2639 0.936 62.9198 0.234798C61.4017 -0.0834581 14.4066 -0.0757428 12.9257 0.243107ZM62.6355 6.42633C62.9554 6.64933 63.3841 7.07842 63.5884 7.37991L63.9598 7.92769V37.9947V68.0616L63.5884 68.6094C63.3841 68.9109 62.9552 69.34 62.6353 69.563L62.0538 69.9686H37.9599H13.866L13.2845 69.563C12.9646 69.34 12.5357 68.911 12.3314 68.61C11.9695 68.0765 11.9588 67.9845 11.9123 64.9917L11.8646 61.9207L13.1267 61.8545C14.5882 61.778 15.3152 61.4107 15.916 60.4457C16.4153 59.6436 16.4153 58.1863 15.916 57.3842C15.3168 56.4216 14.5873 56.052 13.1372 55.9759L11.8857 55.9103V48.529V41.1477L13.1372 41.0821C14.5873 41.006 15.3168 40.6364 15.916 39.6738C16.4153 38.8717 16.4153 37.4144 15.916 36.6123C15.3168 35.6497 14.5873 35.2801 13.1372 35.2039L11.8857 35.1384V27.757V20.3757L13.1372 20.3102C14.1712 20.2559 14.4909 20.1771 14.9761 19.8564C15.8888 19.2532 16.2685 18.5229 16.2685 17.3711C16.2685 16.2193 15.8888 15.489 14.9761 14.8857C14.4909 14.5651 14.1712 14.4863 13.1372 14.432L11.8857 14.3664L11.8866 11.4548C11.887 9.85325 11.9552 8.29907 12.0381 8.00114C12.2216 7.34089 13.2374 6.2919 13.8721 6.10688C14.1457 6.02721 24.1554 5.98151 38.1955 5.99605L62.0538 6.02068L62.6355 6.42633ZM37.2913 20.1818C32.4628 21.083 28.8922 25.0641 28.5739 29.9016C28.4209 32.2281 29.0721 34.656 30.3297 36.4491C30.887 37.2435 30.9167 37.3314 30.6753 37.4711C28.5641 38.6911 26.1577 40.7874 24.7962 42.5922C22.8602 45.1586 21.5768 48.6124 21.3084 51.9786L21.2048 53.2769H24.1966H27.1885V52.7706C27.1885 52.4921 27.2845 51.7745 27.4017 51.1757C28.3961 46.0962 32.0324 42.4648 37.1187 41.4717C42.7088 40.3802 48.6288 43.7982 50.5243 49.2115C50.884 50.2391 51.257 52.0507 51.257 52.7706V53.2769H54.2504H57.2437L57.1455 52.0006C56.9066 48.8964 55.9324 46.0781 54.1375 43.2977C52.8644 41.326 49.885 38.5834 47.9544 37.6065L47.2376 37.2438L47.6675 36.6176C50.3377 32.73 50.2088 27.8783 47.335 24.0917C46.0847 22.4443 43.8959 20.9876 41.8143 20.4177C40.7808 20.1348 38.2507 20.0029 37.2913 20.1818ZM41.0674 26.4833C42.688 27.2751 43.5909 28.7396 43.5909 30.5761C43.5909 32.4278 42.6898 33.8747 41.0295 34.6889C40.3324 35.0308 39.9977 35.1007 39.0742 35.0968C37.6607 35.091 36.6647 34.6731 35.7585 33.7055C34.5377 32.4023 34.1725 30.6352 34.7857 28.9988C35.7382 26.4564 38.6368 25.2957 41.0674 26.4833Z" fill="#10054C"/>
</svg>
