<svg width="110" height="110" viewBox="0 0 110 110" fill="none" xmlns="http://www.w3.org/2000/svg">
<path d="M100.833 28.9204H55C53.1208 28.9204 51.5625 27.3621 51.5625 25.4829C51.5625 23.6037 53.1208 22.0454 55 22.0454H100.833C102.712 22.0454 104.271 23.6037 104.271 25.4829C104.271 27.4079 102.712 28.9204 100.833 28.9204Z" fill="#7058EE"/>
<path d="M90.6571 51.5628H65.2197C55.1822 51.5628 51.6072 48.0337 51.6072 38.042V19.2503C51.6072 9.25866 55.1822 5.72949 65.2197 5.72949H90.6571C100.695 5.72949 104.27 9.25866 104.27 19.2503V38.0878C104.27 48.0337 100.695 51.5628 90.6571 51.5628ZM65.1738 12.6045C58.9405 12.6045 58.4363 13.1087 58.4363 19.2503V38.0878C58.4363 44.2295 58.9405 44.7336 65.1738 44.7336H90.6113C96.8446 44.7336 97.3488 44.2295 97.3488 38.0878V19.2503C97.3488 13.1087 96.8446 12.6045 90.6113 12.6045H65.1738Z" fill="#7058EE"/>
<path d="M54.9998 81.6294H9.1665C7.28734 81.6294 5.729 80.0711 5.729 78.1919C5.729 76.3127 7.28734 74.7544 9.1665 74.7544H54.9998C56.879 74.7544 58.4373 76.3127 58.4373 78.1919C58.4373 80.1169 56.879 81.6294 54.9998 81.6294Z" fill="#7058EE"/>
<path d="M44.8241 104.271H19.3867C9.34918 104.271 5.77417 100.742 5.77417 90.75V71.9583C5.77417 61.9667 9.34918 58.4375 19.3867 58.4375H44.8241C54.8616 58.4375 58.4366 61.9667 58.4366 71.9583V90.7958C58.4366 100.742 54.8616 104.271 44.8241 104.271ZM19.3408 65.3125C13.1075 65.3125 12.6033 65.8167 12.6033 71.9583V90.7958C12.6033 96.9375 13.1075 97.4417 19.3408 97.4417H44.7782C51.0116 97.4417 51.5157 96.9375 51.5157 90.7958V71.9583C51.5157 65.8167 51.0116 65.3125 44.7782 65.3125H19.3408Z" fill="#7058EE"/>
<path d="M68.7508 104.271C67.5133 104.271 66.3675 103.584 65.7717 102.53C65.1758 101.43 65.1757 100.146 65.8174 99.0462L70.63 91.0254C71.5925 89.4212 73.7008 88.8712 75.3508 89.8337C77.0008 90.7962 77.505 92.9046 76.5425 94.5546L75.3049 96.6171C87.9549 93.6379 97.4425 82.2713 97.4425 68.7046C97.4425 66.8254 99.0009 65.2671 100.88 65.2671C102.759 65.2671 104.318 66.8254 104.318 68.7046C104.272 88.3213 88.3216 104.271 68.7508 104.271Z" fill="#7058EE"/>
<path d="M9.1665 44.6878C7.28734 44.6878 5.729 43.1295 5.729 41.2503C5.729 21.6795 21.679 5.72949 41.2498 5.72949C42.4873 5.72949 43.6331 6.417 44.229 7.47116C44.8248 8.57116 44.8249 9.85449 44.1832 10.9545L39.3707 18.9753C38.4082 20.5795 36.2998 21.1295 34.6498 20.167C32.9998 19.2045 32.4956 17.0962 33.4581 15.4462L34.6957 13.3836C22.0457 16.3628 12.5581 27.7295 12.5581 41.2961C12.604 43.1295 11.0457 44.6878 9.1665 44.6878Z" fill="#7058EE"/>
</svg>
