<svg width="110" height="110" viewBox="0 0 110 110" fill="none" xmlns="http://www.w3.org/2000/svg">
<path d="M61.4167 79.8415H49.9125C42.3958 79.8415 36.3 73.5165 36.3 65.7249C36.3 63.8457 37.8583 62.2874 39.7375 62.2874C41.6167 62.2874 43.175 63.8457 43.175 65.7249C43.175 69.7124 46.2 72.9665 49.9125 72.9665H61.4167C64.3958 72.9665 66.8708 70.3082 66.8708 67.0999C66.8708 63.1124 65.45 62.3332 63.1125 61.5082L44.6417 54.9999C41.0667 53.7624 36.2542 51.104 36.2542 42.8999C36.2542 35.8415 41.8 30.1582 48.5833 30.1582H60.0875C67.6042 30.1582 73.7 36.4832 73.7 44.2749C73.7 46.154 72.1417 47.7124 70.2625 47.7124C68.3833 47.7124 66.825 46.154 66.825 44.2749C66.825 40.2874 63.8 37.0332 60.0875 37.0332H48.5833C45.6042 37.0332 43.1292 39.6915 43.1292 42.8999C43.1292 46.8874 44.55 47.6665 46.8875 48.4915L65.3583 54.9999C68.9333 56.2374 73.7458 58.8957 73.7458 67.0999C73.7 74.1124 68.2 79.8415 61.4167 79.8415Z" fill="#7058EE"/>
<path d="M55 85.9375C53.1208 85.9375 51.5625 84.3792 51.5625 82.5V27.5C51.5625 25.6208 53.1208 24.0625 55 24.0625C56.8792 24.0625 58.4375 25.6208 58.4375 27.5V82.5C58.4375 84.3792 56.8792 85.9375 55 85.9375Z" fill="#7058EE"/>
<path d="M54.9998 104.271C27.8207 104.271 5.729 82.1795 5.729 55.0003C5.729 27.8212 27.8207 5.72949 54.9998 5.72949C82.179 5.72949 104.271 27.8212 104.271 55.0003C104.271 82.1795 82.179 104.271 54.9998 104.271ZM54.9998 12.6045C31.6248 12.6045 12.604 31.6253 12.604 55.0003C12.604 78.3753 31.6248 97.3962 54.9998 97.3962C78.3748 97.3962 97.3957 78.3753 97.3957 55.0003C97.3957 31.6253 78.3748 12.6045 54.9998 12.6045Z" fill="#7058EE"/>
</svg>
