<svg width="71" height="65" viewBox="0 0 71 65" fill="none" xmlns="http://www.w3.org/2000/svg">
<path fill-rule="evenodd" clip-rule="evenodd" d="M34.0615 0.16722C33.4703 0.440976 32.9401 1.00413 32.7154 1.5973C32.5982 1.90649 32.5451 8.02905 32.5451 21.2279V40.4092L27.2376 35.114C24.3185 32.2016 21.7278 29.7429 21.4807 29.65C20.3169 29.213 18.9543 29.6968 18.3573 30.759C17.9878 31.4165 17.9123 32.4832 18.1955 33.0435C18.4462 33.5391 33.4931 48.6095 34.0136 48.8861C34.5661 49.1796 35.6311 49.18 36.1845 48.8867C36.4216 48.7611 40.0404 45.2233 44.2266 41.0252C52.445 32.783 52.217 33.0599 51.9508 31.6409C51.8116 30.8985 50.9733 30.0422 50.1416 29.7931C48.7484 29.3757 48.6617 29.4401 42.8827 35.196L37.6569 40.4009L37.6151 20.9856C37.5734 1.65779 37.5718 1.5684 37.2441 1.1296C37.0631 0.887127 36.7272 0.548564 36.4979 0.377286C35.9689 -0.0176249 34.6976 -0.127287 34.0615 0.16722ZM1.48453 41.2011C0.877633 41.4655 0.356618 42.1079 0.12644 42.8762C0.00927534 43.2671 -0.0260022 45.2356 0.0186927 48.8805C0.084458 54.2452 0.0898853 54.3183 0.522947 55.7396C1.62611 59.3603 3.95615 62.1276 7.24458 63.723C10.1044 65.1105 7.64236 64.9978 35.0991 64.9978C62.5591 64.9978 60.0972 65.1107 62.9536 63.7211C66.3151 62.0858 68.7803 59.0824 69.7668 55.4203C70.0805 54.2559 70.1162 53.6581 70.1726 48.6363C70.2344 43.139 70.2337 43.1279 69.8663 42.4203C69.3869 41.4971 68.8279 41.1069 67.8494 41.0129C66.8444 40.9164 65.9331 41.3863 65.4466 42.2519C65.1227 42.8282 65.1083 43.0606 65.1058 47.78C65.1026 53.3045 64.9913 54.215 64.1185 55.8604C63.4569 57.1077 62.0921 58.4822 60.9546 59.0467C58.999 60.0172 60.334 59.9696 35.0991 59.9696C9.88636 59.9696 11.2626 60.0186 9.27261 59.0505C8.06249 58.4618 6.68797 57.0882 6.05585 55.8361C5.19979 54.1403 5.09555 53.2684 5.09236 47.78C5.08981 43.0606 5.07544 42.8282 4.75156 42.2519C4.13046 41.1468 2.68043 40.6806 1.48453 41.2011Z" fill="#9791B7"/>
</svg>
