<svg width="45" height="45" viewBox="0 0 45 45" fill="none" xmlns="http://www.w3.org/2000/svg">
<path d="M39.375 41.25H5.625C4.85625 41.25 4.21875 40.6125 4.21875 39.8437C4.21875 39.075 4.85625 38.4375 5.625 38.4375H39.375C40.1437 38.4375 40.7812 39.075 40.7812 39.8437C40.7812 40.6125 40.1437 41.25 39.375 41.25Z" fill="#7058EE"/>
<path d="M35.6623 6.52499C32.0248 2.88749 28.4623 2.79374 24.7311 6.52499L22.4623 8.79374C22.2748 8.98124 22.1998 9.28124 22.2748 9.54374C23.6998 14.5125 27.6748 18.4875 32.6436 19.9125C32.7186 19.9312 32.7936 19.95 32.8686 19.95C33.0748 19.95 33.2623 19.875 33.4123 19.725L35.6623 17.4562C37.5186 15.6187 38.4186 13.8375 38.4186 12.0375C38.4373 10.1812 37.5373 8.38124 35.6623 6.52499Z" fill="#7058EE"/>
<path d="M29.2686 21.6188C28.7249 21.3563 28.1999 21.0938 27.6936 20.7938C27.2811 20.55 26.8874 20.2875 26.4936 20.0063C26.1749 19.8 25.7999 19.5 25.4436 19.2C25.4061 19.1813 25.2749 19.0688 25.1249 18.9188C24.5061 18.3938 23.8124 17.7188 23.1936 16.9688C23.1374 16.9313 23.0436 16.8 22.9124 16.6313C22.7249 16.4063 22.4061 16.0312 22.1249 15.6C21.8999 15.3187 21.6374 14.9063 21.3936 14.4938C21.0936 13.9875 20.8311 13.4812 20.5686 12.9562C20.4282 12.6554 20.3039 12.3599 20.1899 12.0726C20.0555 11.7338 19.6186 11.6375 19.3608 11.8953L8.13737 23.1188C7.89362 23.3625 7.66862 23.8313 7.61237 24.15L6.59987 31.3313C6.41237 32.6063 6.76862 33.8063 7.55612 34.6125C8.23112 35.2688 9.16861 35.625 10.1811 35.625C10.4061 35.625 10.6311 35.6063 10.8561 35.5688L18.0561 34.5563C18.3936 34.5 18.8624 34.275 19.0874 34.0313L30.3037 22.8149C30.5632 22.5554 30.4645 22.1124 30.1236 21.9762C29.8469 21.8657 29.5656 21.7474 29.2686 21.6188Z" fill="#7058EE"/>
</svg>
