<svg width="65" height="65" viewBox="0 0 65 65" fill="none" xmlns="http://www.w3.org/2000/svg">
<path d="M32.5005 44.2274C26.0276 44.2274 20.7734 38.9732 20.7734 32.5003C20.7734 26.0274 26.0276 20.7732 32.5005 20.7732C38.9734 20.7732 44.2276 26.0274 44.2276 32.5003C44.2276 38.9732 38.9734 44.2274 32.5005 44.2274ZM32.5005 24.8357C28.2755 24.8357 24.8359 28.2753 24.8359 32.5003C24.8359 36.7253 28.2755 40.1649 32.5005 40.1649C36.7255 40.1649 40.1651 36.7253 40.1651 32.5003C40.1651 28.2753 36.7255 24.8357 32.5005 24.8357Z" fill="#292D32"/>
<path d="M32.4988 56.9289C22.3155 56.9289 12.7009 50.9706 6.09258 40.6247C3.22174 36.156 3.22174 28.8706 6.09258 24.3747C12.728 14.0289 22.3426 8.07056 32.4988 8.07056C42.6551 8.07056 52.2697 14.0289 58.878 24.3747C61.7488 28.8435 61.7488 36.1289 58.878 40.6247C52.2697 50.9706 42.6551 56.9289 32.4988 56.9289ZM32.4988 12.1331C23.7509 12.1331 15.3822 17.3872 9.53216 26.5685C7.50091 29.7372 7.50091 35.2622 9.53216 38.431C15.3822 47.6122 23.7509 52.8664 32.4988 52.8664C41.2467 52.8664 49.6155 47.6122 55.4655 38.431C57.4967 35.2622 57.4967 29.7372 55.4655 26.5685C49.6155 17.3872 41.2467 12.1331 32.4988 12.1331Z" fill="#292D32"/>
</svg>
