<svg width="53" height="54" viewBox="0 0 53 54" fill="none" xmlns="http://www.w3.org/2000/svg">
<path fill-rule="evenodd" clip-rule="evenodd" d="M1.54431 0.781795C1.34756 0.844348 1.00061 1.08145 0.77331 1.30873C0.107095 1.9751 -0.0615611 2.87049 0.319426 3.71838C0.621981 4.3915 48.7249 52.4384 49.4688 52.8105C50.9308 53.5416 52.6099 52.4632 52.5991 50.7999C52.5935 49.9519 52.512 49.8619 44.4477 41.8026L36.7136 34.0731L40.0565 29.3126C41.8951 26.6943 43.4934 24.3448 43.6082 24.0914C43.853 23.551 43.8878 22.6884 43.6885 22.1036C43.5186 21.6053 42.8511 20.8699 42.3021 20.5764C41.8916 20.3569 41.8243 20.3543 35.6076 20.3261C30.4102 20.3023 29.3279 20.2735 29.3279 20.1589C29.3279 20.0826 29.7691 16.3178 30.3083 11.7925C30.8966 6.85551 31.2679 3.37316 31.2367 3.08548C31.1401 2.19562 30.5705 1.3548 29.8061 0.973547C28.8205 0.482036 27.6084 0.613078 26.8132 1.29706C26.5607 1.5143 24.7122 4.16126 21.9481 8.2635L17.4902 14.8795L10.5676 7.97275C5.24961 2.66686 3.53813 1.01798 3.1837 0.858783C2.67927 0.632223 2.1001 0.60499 1.54431 0.781795ZM11.1186 24.3217C10.0458 25.9124 9.10223 27.3751 9.02185 27.5722C8.94137 27.7693 8.87965 28.2069 8.88457 28.5448C8.89575 29.3108 9.20117 29.9869 9.7666 30.4969C10.5789 31.2297 10.3534 31.2032 16.0764 31.2366C19.1544 31.2546 21.2283 31.3049 21.2283 31.3617C21.2283 31.4139 20.79 35.5885 20.2543 40.6387C19.7186 45.6888 19.2807 50.0782 19.2813 50.393C19.2843 52.1139 21.0088 53.4225 22.6673 52.9624C23.6514 52.6894 23.72 52.6066 27.8888 46.6572C30.0556 43.5648 31.9216 40.9065 32.0354 40.7498L32.2424 40.4646L22.7115 30.9472C17.4694 25.7124 13.1554 21.4296 13.1247 21.4296C13.0942 21.4296 12.1913 22.7311 11.1186 24.3217Z" fill="white"/>
</svg>
