<svg width="75" height="75" viewBox="0 0 75 75" fill="none" xmlns="http://www.w3.org/2000/svg">
<path d="M37.9988 36.3125C37.905 36.3125 37.8425 36.3125 37.7488 36.3125C37.5925 36.2812 37.3738 36.2812 37.1863 36.3125C28.1238 36.0312 21.28 28.9062 21.28 20.125C21.28 11.1875 28.5613 3.90625 37.4988 3.90625C46.4363 3.90625 53.7175 11.1875 53.7175 20.125C53.6863 28.9062 46.8113 36.0312 38.0925 36.3125C38.0613 36.3125 38.03 36.3125 37.9988 36.3125ZM37.4988 8.59375C31.155 8.59375 25.9675 13.7813 25.9675 20.125C25.9675 26.375 30.8425 31.4062 37.0613 31.625C37.2175 31.5937 37.655 31.5937 38.0613 31.625C44.1863 31.3437 48.9988 26.3125 49.03 20.125C49.03 13.7813 43.8425 8.59375 37.4988 8.59375Z" fill="#9791B7"/>
<path d="M38.03 70.4688C31.905 70.4688 25.7488 68.9062 21.0925 65.7812C16.7488 62.9062 14.3738 58.9688 14.3738 54.6875C14.3738 50.4062 16.7488 46.4375 21.0925 43.5313C30.4675 37.3125 45.655 37.3125 54.9675 43.5313C59.28 46.4063 61.6863 50.3437 61.6863 54.625C61.6863 58.9062 59.3113 62.875 54.9675 65.7812C50.28 68.9062 44.155 70.4688 38.03 70.4688ZM23.6863 47.4687C20.6863 49.4687 19.0613 52.0313 19.0613 54.7188C19.0613 57.375 20.7175 59.9375 23.6863 61.9062C31.4675 67.125 44.5925 67.125 52.3738 61.9062C55.3738 59.9062 56.9988 57.3437 56.9988 54.6562C56.9988 52 55.3425 49.4375 52.3738 47.4687C44.5925 42.2812 31.4675 42.2812 23.6863 47.4687Z" fill="#9791B7"/>
</svg>
