<svg width="99" height="70" viewBox="0 0 99 70" fill="none" xmlns="http://www.w3.org/2000/svg">
<path d="M1.12219 30.3366L1.79308 30.6719C0.456655 33.3461 0.407191 36.7447 1.62892 39.2183L1.62896 39.2184C1.62886 39.2182 1.6334 39.2272 1.64562 39.2479C1.65731 39.2676 1.67331 39.2935 1.69438 39.326C1.73672 39.3914 1.79395 39.4753 1.8672 39.5787C2.01359 39.7852 2.21375 40.055 2.46526 40.3845C2.96772 41.0429 3.66306 41.924 4.51668 42.9844C6.2232 45.1044 8.55251 47.9293 11.2149 51.0989C12.3714 52.4757 13.4307 53.7374 14.4018 54.8941C19.775 61.2941 22.4488 64.4789 23.9579 66.148C24.8527 67.1376 25.2952 67.5449 25.6174 67.7718C25.8352 67.9252 25.9839 67.9929 26.2315 68.1057C26.3636 68.166 26.5239 68.239 26.738 68.3448L26.7381 68.3449L28.4008 69.1668L54.3312 69.2345C63.2816 69.2579 69.9213 69.255 74.4495 69.2245C76.714 69.2093 78.4473 69.1872 79.6763 69.1582C80.9381 69.1284 81.6027 69.0917 81.7893 69.0598C88.3088 67.9444 94.2403 62.9697 96.5129 56.7038C96.818 55.8627 97.0317 55.2519 97.192 54.499C97.3526 53.7446 97.4639 52.8249 97.5363 51.3847C97.6819 48.4895 97.6663 43.6071 97.625 33.9547L97.5491 16.2143L96.7967 14.0415C95.3364 9.82451 92.6627 6.32964 89.0709 3.92715L89.4864 3.30599L89.0709 3.92714C87.0171 2.55336 84.2177 1.39759 81.9419 0.976957C81.78 0.947047 81.1371 0.909253 79.8859 0.877085C78.672 0.845878 76.9544 0.820498 74.711 0.800868C70.2252 0.761614 63.6504 0.745451 54.8276 0.751092C44.109 0.757792 37.6003 0.775958 33.6621 0.82631C31.6918 0.851501 30.3738 0.884659 29.497 0.92789C28.5857 0.972821 28.2313 1.0268 28.1188 1.06158L1.12219 30.3366ZM1.12219 30.3366L1.79308 30.6719C1.86776 30.5225 2.15534 30.1013 2.72706 29.35C3.27875 28.6249 4.05281 27.6458 5.04827 26.4144C7.03848 23.9524 9.90152 20.4967 13.6138 16.0767C19.5908 8.96028 22.597 5.38984 24.4533 3.48462M1.12219 30.3366L24.4533 3.48462M30.4852 60.9031L30.2604 60.6352L19.8001 48.1655L20.3351 47.7166L19.8001 48.1655C16.9226 44.7352 14.3062 41.5931 12.4086 39.294C11.4601 38.1447 10.6899 37.2045 10.1562 36.5438C9.88984 36.214 9.67995 35.9508 9.53558 35.765C9.46412 35.673 9.40442 35.5945 9.36083 35.5342C9.34 35.5054 9.3161 35.4715 9.29493 35.4382C9.28519 35.4229 9.26765 35.3946 9.24994 35.36C9.24132 35.3431 9.22601 35.3119 9.21123 35.2717L9.21093 35.2709C9.20161 35.2455 9.16431 35.1441 9.16431 35.0092C9.16431 34.8744 9.20161 34.773 9.21093 34.7476L9.21123 34.7468C9.22601 34.7066 9.24132 34.6754 9.24994 34.6585C9.26765 34.6239 9.28519 34.5956 9.29493 34.5803C9.3161 34.547 9.34 34.5131 9.36083 34.4843C9.40442 34.424 9.46412 34.3455 9.53558 34.2535C9.67995 34.0677 9.88984 33.8045 10.1562 33.4747C10.6899 32.814 11.4601 31.8738 12.4086 30.7245C14.3062 28.4254 16.9226 25.2833 19.8001 21.853L20.3274 22.2954L19.8001 21.853L30.2604 9.38333L30.4852 9.11538L30.835 9.11534L54.694 9.11275C61.8021 9.11193 67.9091 9.13414 72.3432 9.17349C74.5598 9.19316 76.3604 9.21712 77.6597 9.24468C78.3089 9.25846 78.836 9.27319 79.2285 9.28887C79.5984 9.30364 79.8997 9.32067 80.0581 9.34662L30.4852 60.9031ZM30.4852 60.9031L30.835 60.9032M30.4852 60.9031L30.835 60.9032M30.835 60.9032L54.694 60.9057C61.8021 60.9066 67.9091 60.8843 72.3432 60.845M30.835 60.9032L72.3432 60.845M24.4533 3.48462C25.3766 2.53688 25.979 2.04017 26.4898 1.72834M24.4533 3.48462L26.4898 1.72834M26.4898 1.72834C26.9919 1.42177 27.4372 1.27294 28.1187 1.06163L26.4898 1.72834ZM72.3432 60.845C74.5598 60.8253 76.3604 60.8014 77.6597 60.7738M72.3432 60.845L77.6597 60.7738M77.6597 60.7738C78.3089 60.76 78.836 60.7453 79.2285 60.7296M77.6597 60.7738L79.2285 60.7296M79.2285 60.7296C79.5984 60.7148 79.8997 60.6978 80.0581 60.6719L79.2285 60.7296ZM46.8759 35.5376L47.4005 35.0092L46.8759 34.4809L43.3173 30.8961C41.0575 28.6197 39.9162 27.3666 39.3939 26.407C39.1494 25.9578 39.0583 25.6009 39.0484 25.2476C39.0381 24.8766 39.1155 24.4604 39.2844 23.8796C39.6244 22.7101 40.6749 21.5254 41.8277 21.0275C42.1829 20.8741 42.8825 20.7285 43.3134 20.7243C43.973 20.7179 44.5819 20.8792 45.4838 21.4954C46.4209 22.1357 47.6244 23.233 49.4528 25.0665L49.956 24.5647L49.4528 25.0665L52.8526 28.4754L53.3798 29.0041L53.9109 28.4792L57.6827 24.7506C59.6231 22.8325 60.696 21.8259 61.4886 21.2857C61.8687 21.0267 62.1588 20.8938 62.4269 20.8195C62.6988 20.7442 62.9883 20.7177 63.3915 20.7177C65.6012 20.7177 67.5623 22.6861 67.5727 24.9712C67.5747 25.4064 67.5461 25.7309 67.4648 26.0348C67.3846 26.3347 67.2432 26.6507 66.9788 27.0487C66.4287 27.8767 65.4137 28.9665 63.5061 30.8884L64.0384 31.4168L63.5061 30.8884L59.9406 34.4809L59.4162 35.0092L59.9406 35.5376L63.5061 39.1301L64.0384 38.6017L63.5061 39.1301C65.4137 41.052 66.4287 42.1418 66.9788 42.9698C67.2432 43.3677 67.3846 43.6838 67.4648 43.9837C67.5461 44.2876 67.5747 44.612 67.5727 45.0472C67.5623 47.3324 65.6012 49.3008 63.3915 49.3008C62.9883 49.3008 62.6988 49.2743 62.4269 49.199C62.1588 49.1247 61.8687 48.9918 61.4886 48.7328C60.696 48.1926 59.6231 47.186 57.6827 45.2679L53.9109 41.5393L53.3798 41.0144L52.8526 41.5431L49.4528 44.952L49.4528 44.952C47.6491 46.7607 46.4445 47.8582 45.5059 48.5058C44.5968 49.133 43.9873 49.3034 43.3574 49.3034C41.6216 49.3034 39.8011 47.9163 39.2844 46.1389L39.2844 46.1389C39.1155 45.5581 39.0381 45.1419 39.0484 44.7709C39.0583 44.4176 39.1494 44.0607 39.3939 43.6115C39.9162 42.6519 41.0575 41.3988 43.3173 39.1224L46.8759 35.5376ZM89.0541 18.3426C88.2981 13.7248 84.6761 10.1028 80.0583 9.34665V60.6718C84.6761 59.9157 88.2981 56.2937 89.0541 51.6759C89.1016 51.386 89.1343 50.6642 89.1615 49.7059C89.1897 48.7168 89.213 47.4054 89.2317 45.8811C89.269 42.8317 89.2877 38.9198 89.2877 35.0092C89.2877 31.0987 89.269 27.1868 89.2317 24.1374C89.213 22.6131 89.1897 21.3016 89.1615 20.3126C89.1343 19.3543 89.1016 18.6325 89.0541 18.3426Z" fill="black" stroke="white" stroke-width="1.5"/>
</svg>
