<svg width="80" height="80" viewBox="0 0 80 80" fill="none" xmlns="http://www.w3.org/2000/svg">
<path d="M40.0003 54.1665C31.267 54.1665 24.167 47.0665 24.167 38.3332L24.167 19.9998C24.167 11.2665 31.267 4.1665 40.0003 4.1665C48.7337 4.1665 55.8337 11.2665 55.8337 19.9998V38.3332C55.8337 47.0665 48.7337 54.1665 40.0003 54.1665ZM40.0003 9.1665C34.0337 9.1665 29.167 14.0332 29.167 19.9998V38.3332C29.167 44.2998 34.0337 49.1665 40.0003 49.1665C45.967 49.1665 50.8337 44.2998 50.8337 38.3332V19.9998C50.8337 14.0332 45.967 9.1665 40.0003 9.1665Z" fill="#10054D"/>
<path d="M40 65.8332C24.5667 65.8332 12 53.2665 12 37.8332V32.1665C12 30.7998 13.1333 29.6665 14.5 29.6665C15.8667 29.6665 17 30.7998 17 32.1665V37.8332C17 50.4998 27.3333 60.8332 40 60.8332C52.6667 60.8332 63 50.4998 63 37.8332V32.1665C63 30.7998 64.1333 29.6665 65.5 29.6665C66.8667 29.6665 68 30.7998 68 32.1665V37.8332C68 53.2665 55.4333 65.8332 40 65.8332Z" fill="#10054D"/>
<path d="M44.6331 23.9332C44.3664 23.9332 44.0664 23.8999 43.7664 23.7999C41.3331 22.8999 38.6664 22.8999 36.2331 23.7999C34.9331 24.2666 33.4998 23.5999 33.0331 22.2999C32.5664 20.9999 33.2331 19.5666 34.5331 19.0999C38.0664 17.8332 41.9664 17.8332 45.4998 19.0999C46.7998 19.5666 47.4664 20.9999 46.9998 22.2999C46.5998 23.2999 45.6331 23.9332 44.6331 23.9332Z" fill="#10054D"/>
<path d="M42.6668 30.9999C42.4334 30.9999 42.2334 30.9666 42.0001 30.8999C40.6668 30.5332 39.3001 30.5332 37.9668 30.8999C36.6334 31.2666 35.2668 30.4666 34.9001 29.1332C34.5334 27.8332 35.3334 26.4666 36.6668 26.0999C38.8334 25.4999 41.1668 25.4999 43.3334 26.0999C44.6668 26.4666 45.4668 27.8332 45.1001 29.1666C44.8001 30.2666 43.7668 30.9999 42.6668 30.9999Z" fill="#10054D"/>
<path d="M40 75.8335C38.6333 75.8335 37.5 74.7002 37.5 73.3335V63.3335C37.5 61.9668 38.6333 60.8335 40 60.8335C41.3667 60.8335 42.5 61.9668 42.5 63.3335V73.3335C42.5 74.7002 41.3667 75.8335 40 75.8335Z" fill="#10054D"/>
</svg>
