<svg width="80" height="64" viewBox="0 0 80 64" fill="none" xmlns="http://www.w3.org/2000/svg">
<path d="M74.9026 10.8667L74.2226 10.9136L73.156 10.9872L73.2 11.6257L73.1559 10.9872C72.1359 11.0577 71.0934 10.5941 70.3279 9.81904C69.5614 9.0429 69.1428 8.02722 69.2598 7.07065C69.2598 7.0706 69.2598 7.07055 69.2598 7.0705L69.3846 6.05228L69.4725 5.33443H68.7493H40.0341H11.3192H10.6164L10.682 6.0342L10.7793 7.07172C10.8904 8.25884 10.3665 9.44307 9.32336 10.2535C8.93852 10.5524 8.68886 10.6966 8.43167 10.7796C8.16805 10.8646 7.84624 10.9015 7.28853 10.9015H5.86827H5.22831L5.22827 11.5415L5.22747 23.2867L5.22667 35.0318L5.22662 35.6719H5.86667H7.2352C9.40592 35.6719 10.9886 37.4187 10.7617 39.4689L10.6295 40.6644L10.5509 41.3748H11.2656H40.0448H68.8243H69.5931L69.4537 40.6187L69.2817 39.686C69.0922 38.6569 69.4671 37.5433 70.4565 36.5669L70.0248 36.1295L70.4565 36.5668C70.8585 36.1701 71.062 36.0185 71.3029 35.9253C71.5693 35.8223 71.9338 35.77 72.7129 35.7194L74.447 35.607L75.0492 35.568L75.0456 34.9646L74.9763 23.2563L74.9067 11.5483L74.9026 10.8667ZM37.2637 12.7245L37.2637 12.7245C41.0646 11.6834 45.0372 12.832 47.771 15.7757L48.24 15.3402L47.7711 15.7757C49.2047 17.3194 49.915 18.6269 50.448 20.7106C50.6854 21.639 50.8148 22.8876 50.8227 23.9578C50.8266 24.4918 50.8 24.96 50.748 25.3071C50.7218 25.4818 50.6917 25.6079 50.6638 25.6892C50.6575 25.7075 50.6521 25.7212 50.6479 25.731C50.5445 25.8306 50.459 25.9521 50.396 26.0492C50.3139 26.1759 50.2296 26.3255 50.1476 26.4851C49.9833 26.8048 49.813 27.1946 49.6729 27.5829L49.6729 27.583C48.7787 30.0631 46.0998 32.6656 43.404 33.6307C42.5041 33.9527 41.2939 34.1244 40.0487 34.1244C38.8042 34.1245 37.5814 33.953 36.6578 33.6295C33.6536 32.5769 31.2627 30.1771 30.1778 27.1125C30.0626 26.7868 29.9144 26.4701 29.7626 26.216C29.6871 26.0897 29.6033 25.9663 29.514 25.8614C29.467 25.8064 29.3914 25.7231 29.289 25.6499C29.2793 25.6165 29.2677 25.5699 29.2559 25.5078C29.2111 25.2722 29.1823 24.9219 29.1784 24.4828C29.1707 23.6109 29.2615 22.4813 29.4546 21.4138C30.223 17.1679 33.238 13.8267 37.2637 12.7245ZM50.6382 25.7515C50.6382 25.7514 50.6385 25.7508 50.6392 25.7497C50.6385 25.751 50.6382 25.7515 50.6382 25.7515ZM29.31 25.7105C29.3175 25.7232 29.317 25.7258 29.3105 25.7115C29.3103 25.7112 29.3101 25.7108 29.31 25.7105ZM16.7249 24.6406L16.7248 24.6406C16.3717 23.6991 16.3462 22.8743 16.5839 22.1572C16.8226 21.4371 17.3502 20.7555 18.2285 20.1466C18.7062 19.8156 19.2494 19.6496 19.9768 19.6496C21.1261 19.6496 22.0487 20.0677 22.6646 20.7346C23.2809 21.4019 23.6312 22.3629 23.5498 23.5247L23.5498 23.5247C23.4931 24.3352 23.3259 24.8888 23.0375 25.325C22.7479 25.7628 22.2946 26.1454 21.5517 26.5383L21.5517 26.5383C19.7287 27.5026 17.4734 26.6367 16.7249 24.6406ZM56.8202 24.9317L56.8202 24.9317C56.374 24.0411 56.2978 23.1569 56.5294 22.3548C56.7621 21.5489 57.3204 20.7761 58.2286 20.1466C59.7051 19.1231 61.8543 19.6 63.1517 21.5439L63.1517 21.5439C63.8342 22.5663 63.755 24.3279 62.872 25.5071C61.2623 27.6561 58.038 27.3627 56.8202 24.9317ZM72.1067 50.9184V50.0648H74.2667H76.4267V56.7126V63.1754L72.2255 62.0993C59.4085 58.8159 43.0024 56.5058 24.0404 55.3061C18.9153 54.9819 6.06714 54.4961 2.46758 54.4912L0.64 54.4886V52.2325V49.9919L7.91902 50.1546C26.7624 50.576 47.099 52.5456 61.6376 55.3534L61.6376 55.3534C62.6001 55.5391 63.5077 55.7083 64.1952 55.8311C64.5387 55.8925 64.8292 55.9427 65.0451 55.9778C65.1526 55.9952 65.2446 56.0094 65.3167 56.0194C65.3689 56.0267 65.4599 56.0393 65.5325 56.0393C65.6896 56.0393 65.8139 55.9883 65.8842 55.9534C65.9613 55.9153 66.0273 55.8693 66.0795 55.8285C66.184 55.7467 66.2841 55.6451 66.3739 55.5426C66.5561 55.3346 66.7486 55.0626 66.9169 54.7721C67.5811 53.626 68.5893 53.0541 70.0671 53.0531L71.4672 53.052L72.1067 53.0516V52.412V50.9184ZM0.64 23.2188V0.64H40H79.36V23.2188V45.7976H40H0.64V23.2188ZM40.0683 29.6975C43.0928 29.6975 45.6636 27.6187 46.2061 24.6883C46.7324 21.8472 45.6488 19.0026 43.3697 17.7227C42.6761 17.3331 41.7642 17.0714 40.8755 16.9461C39.989 16.8212 39.0516 16.8215 38.3039 17.0133C35.4635 17.7413 33.7545 20.1556 33.7659 23.2391C33.7729 25.1618 34.3606 26.7891 35.4791 27.9389C36.5998 29.091 38.1892 29.6975 40.0683 29.6975Z" fill="#10054C" stroke="black" stroke-width="1.28"/>
</svg>
