<svg width="70" height="50" viewBox="0 0 70 50" fill="none" xmlns="http://www.w3.org/2000/svg">
<path fill-rule="evenodd" clip-rule="evenodd" d="M35.1143 5.96289C19.4985 9.2538 6.73785 11.9624 6.75743 11.9819C6.77686 12.0014 19.3209 10.7072 34.6328 9.10592C49.9447 7.50469 62.489 6.21272 62.5092 6.23505C62.5292 6.25737 63.1784 12.2745 63.9516 19.6063C64.8018 27.6676 65.4153 32.9376 65.5038 32.9386C65.5841 32.9394 66.6303 32.7049 67.8286 32.4174C69.5142 32.013 70.0057 31.8437 70 31.6692C69.9958 31.5452 68.6271 24.3737 66.9583 15.7324C64.616 3.60278 63.8767 0.0162469 63.7156 3.69397e-05C63.6007 -0.0114807 50.7301 2.67184 35.1143 5.96289ZM31.7176 11.9609C16.591 13.6996 4.054 15.1547 3.85755 15.1942C3.6611 15.2339 16.0536 15.275 31.3962 15.2856L59.292 15.305V28.3867C59.292 39.3739 59.3234 41.4684 59.4878 41.4684C59.8983 41.4684 63.795 41.0157 63.8492 40.9617C63.8806 40.9305 63.1439 33.6733 62.2123 24.8346L60.5184 8.76409L59.8695 8.78186C59.5126 8.79153 46.8442 10.2221 31.7176 11.9609ZM0 33.79V50H28.503H57.006V33.79V17.58H28.503H0V33.79ZM47.2778 22.8432C47.5114 23.9274 47.7813 24.4663 48.4585 25.2003C49.1318 25.9302 50.157 26.4795 51.1115 26.6219L51.7197 26.7127V33.7869V40.861L51.0777 40.9486C50.2324 41.0639 49.209 41.5938 48.522 42.2718C47.9468 42.8395 47.296 44.0302 47.2901 44.5256C47.2883 44.682 47.248 44.9541 47.2005 45.1305L47.1143 45.4508L28.4523 45.4149L9.79032 45.3787L9.69831 44.7389C9.56215 43.7929 9.23883 43.1287 8.5539 42.3893C7.83054 41.6084 7.07732 41.1889 6.00063 40.9676L5.21484 40.8061L5.17783 33.7627L5.14068 26.7193L5.7979 26.6298C7.31877 26.4223 8.64248 25.4496 9.30884 24.0498C9.53229 23.5806 9.71517 22.9994 9.71517 22.7583C9.71531 22.5171 9.75817 22.2771 9.81061 22.2251C9.8629 22.1729 18.2799 22.1302 28.515 22.1302H47.1241L47.2778 22.8432ZM26.755 27.184C24.5263 27.7812 22.7781 29.3993 21.986 31.5976C21.7574 32.2317 21.6827 32.7722 21.6827 33.79C21.6827 34.8078 21.7574 35.3483 21.986 35.9825C23.7101 40.767 29.6711 42.1592 33.3002 38.625C37.0731 34.951 35.3223 28.5073 30.1899 27.1769C29.1807 26.9153 27.7464 26.9183 26.755 27.184Z" fill="white"/>
</svg>
