<svg width="80" height="80" viewBox="0 0 80 80" fill="none" xmlns="http://www.w3.org/2000/svg">
<path fill-rule="evenodd" clip-rule="evenodd" d="M0 18.2031V36.4062H18.2031H36.4062V18.2031V0H18.2031H0V18.2031ZM43.5938 18.2031V36.4062H61.7969H80V18.2031V0H61.7969H43.5938V18.2031ZM29.0625 18.2031V29.0625H18.2031H7.34375V18.2031V7.34375H18.2031H29.0625V18.2031ZM72.6562 18.2031V29.0625H61.7969H50.9375V18.2031V7.34375H61.7969H72.6562V18.2031ZM14.5312 18.2059V21.8808L18.1641 21.8388L21.7969 21.7969L21.8388 18.1641L21.8808 14.5312H18.2059H14.5312V18.2059ZM58.1612 18.1641L58.2031 21.7969L61.8359 21.8388L65.4688 21.8808V18.2059V14.5312H61.7941H58.1192L58.1612 18.1641ZM0 61.7969V80H18.2031H36.4062V61.7969V43.5938H18.2031H0V61.7969ZM43.5938 61.7969V80H47.2656H50.9375V69.0625V58.125H54.5312H58.125V61.7969V65.4688H69.0625H80V54.5284V43.588L76.3672 43.63L72.7344 43.6719L72.6925 47.3047L72.6505 50.9375H69.0597H65.4688V47.2656V43.5938H54.5312H43.5938V61.7969ZM29.0625 61.7969V72.6562H18.2031H7.34375V61.7969V50.9375H18.2031H29.0625V61.7969ZM14.5312 61.7941V65.4688H18.2059H21.8808L21.8388 61.8359L21.7969 58.2031L18.1641 58.1612L14.5312 58.1192V61.7941ZM58.232 72.7575C58.1731 72.8164 58.125 74.47 58.125 76.4323V80H61.7997H65.4745L65.4325 76.3672L65.3906 72.7344L61.8648 72.6925C59.9256 72.6694 58.2909 72.6988 58.232 72.7575ZM72.7605 72.7605C72.7031 72.8177 72.6562 74.47 72.6562 76.4323V80H76.3281H80V76.3281V72.6562H76.4323C74.47 72.6562 72.8177 72.7031 72.7605 72.7605Z" fill="white"/>
</svg>
