<svg width="104" height="110" viewBox="0 0 104 110" fill="none" xmlns="http://www.w3.org/2000/svg">
<path fill-rule="evenodd" clip-rule="evenodd" d="M11.2004 0.155825C10.7535 0.262974 10.0902 0.695197 9.67133 1.15234C9.06717 1.81155 8.93148 2.14478 8.93148 2.97026C8.93148 3.58257 10.5378 9.7934 13.0091 18.736C15.2517 26.8513 17.0866 33.5337 17.0866 33.5858C17.0866 33.6382 16.6318 33.6807 16.0758 33.6807C13.6341 33.6807 10.8321 35.5505 9.70554 37.9318C8.53187 40.4133 8.77268 43.2626 10.3539 45.6018L11.1005 46.7063L9.55784 48.4053C4.98688 53.4389 1.97785 59.319 0.515134 66.0748C0.0690923 68.1342 0 69.1067 0 73.3238C0 78.6781 0.295171 80.7004 1.68019 84.8344C6.10164 98.0315 17.45 107.488 31.3547 109.563C33.4984 109.883 39.1012 109.888 41.3147 109.572C46.4941 108.833 51.6982 106.91 56.0143 104.141C57.0414 103.482 57.9109 102.982 57.9462 103.028C57.9818 103.075 58.148 103.47 58.3159 103.906C59.2549 106.345 61.4078 108.468 63.8972 109.407C65.2072 109.902 65.4107 109.909 79.3829 109.979C94.6729 110.055 96.2283 109.972 98.3602 108.964C103.391 106.586 105.059 99.7991 101.695 95.3894L101.142 94.6638L101.596 94.0864C103.828 91.2484 103.988 86.5859 101.955 83.5658L101.194 82.4343L101.93 81.3338C103.884 78.4129 103.897 74.2182 101.96 71.3399L101.211 70.2274L101.76 69.4538C103.729 66.6765 104.009 63.1242 102.5 60.0599C101.606 58.2429 99.5934 56.3423 97.7966 55.617L96.4861 55.088L82.307 55.0235L68.1277 54.9587L66.633 52.7491C65.8109 51.5337 64.3294 49.675 63.3411 48.6185L61.5438 46.6975L62.198 45.9139C63.3189 44.5715 63.8107 42.9022 63.7001 40.8165C63.5878 38.6991 63.0679 37.4838 61.633 35.9837C60.4396 34.7357 58.8159 33.9027 57.265 33.7428C56.5453 33.6685 56.0501 33.5072 56.0501 33.3471C56.0501 33.1985 57.8341 27.8439 60.0144 21.448C62.1948 15.0521 63.9783 9.5048 63.9778 9.12083C63.9769 8.25797 63.2989 7.10877 62.4707 6.56577C61.8953 6.1886 61.0078 6.15213 50.9597 6.09232L40.0722 6.02753L39.6954 3.98127C39.272 1.68333 38.9309 1.02231 37.8689 0.441935C37.1938 0.0731405 36.1228 0.0378016 24.5622 0.00359529C17.6473 -0.0167926 11.6345 0.05162 11.2004 0.155825ZM33.9553 6.55354C34.0181 6.83376 34.5914 9.76463 35.2294 13.0663C35.8673 16.368 36.5351 19.3752 36.7129 19.749C38.0499 22.5578 42.4544 21.5561 42.4573 18.4426C42.4578 17.9732 42.2034 16.4106 41.8919 14.9699C41.5804 13.5291 41.3256 12.3077 41.3256 12.2553C41.3256 12.203 44.7405 12.1602 48.9144 12.1602C53.0882 12.1602 56.5032 12.2365 56.5032 12.3301C56.5032 12.4234 54.9148 17.2656 52.9732 23.0904L49.4429 33.6807H36.4515C24.274 33.6807 23.4529 33.6558 23.3439 33.2843C23.28 33.0662 21.6365 27.0264 19.6917 19.8623C17.747 12.6982 16.1035 6.6582 16.0396 6.44027C15.9304 6.0674 16.4569 6.04384 24.8825 6.04384H33.8414L33.9553 6.55354ZM57.2215 40.172C57.463 40.3904 57.6359 40.858 57.6359 41.2918C57.6359 42.8254 58.8616 42.742 36.2913 42.742C16.2559 42.742 15.9472 42.7352 15.5009 42.289C14.9577 41.7457 14.9194 40.9873 15.4006 40.3007L15.753 39.7971H36.2802C55.0629 39.7971 56.8425 39.829 57.2215 40.172ZM57.0183 50.8951C58.9139 52.689 61.7134 55.9756 61.7134 56.4069C61.7134 56.4921 61.3129 56.9236 60.8232 57.3658C58.7776 59.2141 57.7414 61.821 57.9081 64.7009C58.0108 66.4726 58.6931 68.3897 59.6579 69.6162L60.1082 70.1886L59.3405 71.3598C57.2983 74.4748 57.432 79.0191 59.6481 81.8367L60.089 82.3971L59.3149 83.5472C58.8893 84.1799 58.3811 85.2471 58.1859 85.919C57.5285 88.1807 57.8549 91.3223 58.9214 92.9963C59.2488 93.5103 59.201 93.583 57.3907 95.3289C53.1548 99.4138 47.4825 102.305 41.6654 103.343C38.9234 103.832 33.8819 103.84 31.2449 103.359C18.3382 101.004 8.66213 91.3275 6.3071 78.4208C5.82595 75.7837 5.83365 70.7423 6.32296 68.0003C7.59924 60.8487 11.6465 53.99 17.1949 49.5754L18.0961 48.8584H36.4812H54.8663L57.0183 50.8951ZM34.3991 58.4296C33.7929 58.985 33.5632 59.4071 33.4638 60.1481C33.3811 60.764 33.1962 61.1749 32.9681 61.2501C29.3887 62.429 27.2246 64.7303 26.62 68.001C25.9665 71.5363 27.9853 75.364 31.3137 76.9008C32.4575 77.4288 32.9729 77.5104 35.8521 77.6193C39.0641 77.7408 39.1062 77.7491 39.6465 78.3773C40.4643 79.3278 40.4006 80.5844 39.4959 81.3456L38.799 81.9321L33.8892 81.9325C28.3867 81.9327 27.8523 82.0521 26.8887 83.4947C25.9902 84.8396 26.4053 86.7533 27.7767 87.5895C28.4058 87.973 28.9188 88.0468 30.9617 88.0475L33.3969 88.0484V88.7498C33.3969 90.3874 35.2468 91.8564 36.9152 91.5434C38.0698 91.3268 39.1803 90.1638 39.371 88.9713C39.4537 88.4541 39.647 87.9925 39.8005 87.9453C43.4708 86.819 45.8716 84.104 46.2227 80.6827C46.4909 78.0701 45.1963 74.9361 43.2286 73.4353C41.437 72.0689 40.0964 71.6688 36.9238 71.5542C34.0681 71.4511 33.9587 71.4287 33.3475 70.8175C32.4666 69.9365 32.4793 68.7699 33.3795 67.8696L34.0416 67.2075H38.952C43.0694 67.2075 43.9909 67.1463 44.6594 66.8292C46.2223 66.0875 46.7875 64.0301 45.8503 62.4933C45.1986 61.4243 44.2123 61.0911 41.6996 61.0911H39.567L39.3126 60.1284C38.8704 58.4543 37.9251 57.6931 36.2882 57.6931C35.3791 57.6931 35.0719 57.813 34.3991 58.4296ZM95.8509 61.5342C96.8769 62.1599 97.3544 62.9987 97.3544 64.1758C97.3544 65.3723 96.805 66.2356 95.6771 66.8106C94.962 67.1753 93.7688 67.2068 80.6289 67.2068C67.4889 67.2068 66.2957 67.1753 65.5806 66.8106C64.4422 66.2302 63.9409 65.4238 63.9409 64.1724C63.9409 62.9421 64.3731 62.1646 65.4068 61.5342C66.1045 61.1088 66.6573 61.0927 80.6289 61.0927C94.6004 61.0927 95.1532 61.1088 95.8509 61.5342ZM96.3617 74.1058C98.0632 75.7364 97.5621 78.3775 95.3953 79.1985C94.9683 79.3602 90.0802 79.4402 80.6069 79.4402C69.054 79.4402 66.3179 79.3824 65.7042 79.126C64.6187 78.6725 63.9409 77.6116 63.9409 76.3662C63.9409 75.178 64.384 74.3917 65.4068 73.7642C66.1091 73.3334 66.5723 73.3218 80.8973 73.3787L95.6638 73.4371L96.3617 74.1058ZM96.3595 86.3365C97.6688 87.591 97.7209 89.4038 96.4831 90.6413C96.0772 91.0472 95.4148 91.4455 95.0114 91.5261C94.0645 91.7155 67.21 91.7189 66.2642 91.5298C64.7143 91.2196 63.5531 89.3057 63.9903 87.7813C64.2198 86.9815 64.9966 86.0558 65.6777 85.7702C65.9269 85.6658 72.7757 85.6005 80.8973 85.625L95.6638 85.6698L96.3595 86.3365ZM95.9107 98.1599C97.8156 99.2851 97.7855 102.339 95.8593 103.392C95.1806 103.763 94.062 103.792 80.6289 103.792C67.1957 103.792 66.0771 103.763 65.3984 103.392C63.4903 102.349 63.4389 99.3315 65.3092 98.1708C65.8431 97.8394 67.415 97.8006 80.594 97.7954C93.7926 97.79 95.3471 97.8269 95.9107 98.1599Z" fill="#7058EE"/>
</svg>
