<svg width="50" height="50" viewBox="0 0 50 50" fill="none" xmlns="http://www.w3.org/2000/svg">
<path d="M25 29.5209C20.5625 29.5209 16.9375 25.9167 16.9375 21.4584C16.9375 17.0001 20.5625 13.4167 25 13.4167C29.4375 13.4167 33.0625 17.0209 33.0625 21.4792C33.0625 25.9376 29.4375 29.5209 25 29.5209ZM25 16.5417C22.2917 16.5417 20.0625 18.7501 20.0625 21.4792C20.0625 24.2084 22.2708 26.4167 25 26.4167C27.7292 26.4167 29.9375 24.2084 29.9375 21.4792C29.9375 18.7501 27.7083 16.5417 25 16.5417Z" fill="#9791B7"/>
<path d="M25.0005 47.4167C21.9172 47.4167 18.813 46.2501 16.3963 43.9376C10.2505 38.0209 3.45882 28.5834 6.02132 17.3542C8.33382 7.16675 17.2297 2.60425 25.0005 2.60425C25.0005 2.60425 25.0005 2.60425 25.0213 2.60425C32.7922 2.60425 41.688 7.16675 44.0005 17.3751C46.5422 28.6042 39.7505 38.0209 33.6047 43.9376C31.188 46.2501 28.0838 47.4167 25.0005 47.4167ZM25.0005 5.72925C18.938 5.72925 11.1463 8.95841 9.08382 18.0417C6.83382 27.8542 13.0005 36.3126 18.5838 41.6667C22.188 45.1459 27.8338 45.1459 31.438 41.6667C37.0005 36.3126 43.1672 27.8542 40.9588 18.0417C38.8755 8.95841 31.063 5.72925 25.0005 5.72925Z" fill="#9791B7"/>
</svg>
