<svg width="50" height="50" viewBox="0 0 50 50" fill="none" xmlns="http://www.w3.org/2000/svg">
<path d="M36.3545 47.3959C34.0003 47.3959 31.5212 46.8334 28.9587 45.7501C26.4587 44.6876 23.9378 43.2293 21.4795 41.4584C19.042 39.6668 16.6878 37.6668 14.4587 35.4793C12.2503 33.2501 10.2503 30.8959 8.47949 28.4793C6.68783 25.9792 5.25033 23.4792 4.22949 21.0626C3.14616 18.4792 2.60449 15.9792 2.60449 13.6251C2.60449 12.0001 2.89616 10.4584 3.45866 9.02092C4.04199 7.54175 4.97949 6.16675 6.25033 4.97925C7.85449 3.39592 9.68783 2.60425 11.6462 2.60425C12.4587 2.60425 13.292 2.79175 14.0003 3.12508C14.8128 3.50008 15.5003 4.06258 16.0003 4.81258L20.8337 11.6251C21.2712 12.2292 21.6045 12.8126 21.8337 13.3959C22.1045 14.0209 22.2503 14.6459 22.2503 15.2501C22.2503 16.0417 22.0212 16.8126 21.5837 17.5417C21.2712 18.1042 20.792 18.7084 20.1878 19.3126L18.7712 20.7917C18.792 20.8542 18.8128 20.8959 18.8337 20.9376C19.0837 21.3751 19.5837 22.1251 20.542 23.2501C21.5628 24.4167 22.5212 25.4792 23.4795 26.4584C24.7087 27.6667 25.7295 28.6251 26.6878 29.4167C27.8753 30.4167 28.6462 30.9167 29.1045 31.1459L29.0628 31.2501L30.5837 29.7501C31.2295 29.1042 31.8545 28.6251 32.4587 28.3126C33.6045 27.6043 35.0628 27.4792 36.5212 28.0834C37.0628 28.3126 37.6462 28.6251 38.2712 29.0626L45.1878 33.9792C45.9587 34.5001 46.5212 35.1668 46.8545 35.9584C47.167 36.7501 47.3128 37.4793 47.3128 38.2084C47.3128 39.2084 47.0837 40.2084 46.6462 41.1459C46.2087 42.0834 45.667 42.8959 44.9795 43.6459C43.792 44.9584 42.5003 45.8959 41.0003 46.5001C39.5628 47.0834 38.0003 47.3959 36.3545 47.3959ZM11.6462 5.72925C10.5003 5.72925 9.43783 6.22925 8.41699 7.22925C7.45866 8.12508 6.79199 9.10425 6.37533 10.1667C5.93783 11.2501 5.72949 12.3959 5.72949 13.6251C5.72949 15.5626 6.18783 17.6668 7.10449 19.8334C8.04199 22.0418 9.35449 24.3334 11.0212 26.6251C12.6878 28.9167 14.5837 31.1459 16.667 33.2501C18.7503 35.3126 21.0003 37.2293 23.3128 38.9168C25.5628 40.5626 27.8753 41.8959 30.167 42.8543C33.7295 44.3751 37.0628 44.7293 39.8128 43.5834C40.8753 43.1459 41.8128 42.4793 42.667 41.5209C43.1462 41.0001 43.5212 40.4376 43.8337 39.7709C44.0837 39.2501 44.2087 38.7084 44.2087 38.1668C44.2087 37.8334 44.1462 37.5001 43.9795 37.1251C43.917 37.0001 43.792 36.7709 43.3962 36.5001L36.4795 31.5834C36.0628 31.2917 35.6878 31.0834 35.3337 30.9376C34.8753 30.7501 34.6878 30.5626 33.9795 31.0001C33.5628 31.2084 33.1878 31.5209 32.7712 31.9376L31.1878 33.5001C30.3753 34.2918 29.1253 34.4792 28.167 34.1251L27.6045 33.8751C26.7503 33.4168 25.7503 32.7084 24.6462 31.7709C23.6462 30.9168 22.5628 29.9167 21.2503 28.6251C20.2295 27.5834 19.2087 26.4792 18.1462 25.2501C17.167 24.1042 16.4587 23.1251 16.0212 22.3126L15.7712 21.6876C15.6462 21.2084 15.6045 20.9376 15.6045 20.6459C15.6045 19.8959 15.8753 19.2292 16.3962 18.7084L17.9587 17.0834C18.3753 16.6667 18.6878 16.2709 18.8962 15.9167C19.0628 15.6459 19.1253 15.4167 19.1253 15.2084C19.1253 15.0417 19.0628 14.7917 18.9587 14.5417C18.8128 14.2084 18.5837 13.8334 18.292 13.4376L13.4587 6.60425C13.2503 6.31258 13.0003 6.10425 12.6878 5.95841C12.3545 5.81258 12.0003 5.72925 11.6462 5.72925ZM29.0628 31.2709L28.7295 32.6876L29.292 31.2292C29.1878 31.2084 29.1045 31.2293 29.0628 31.2709Z" fill="#9791B7"/>
</svg>
