<svg width="88" height="65" viewBox="0 0 88 65" fill="none" xmlns="http://www.w3.org/2000/svg">
<path fill-rule="evenodd" clip-rule="evenodd" d="M13.4576 0.217184C12.7183 0.54507 11.9473 1.48987 11.8134 2.2315C11.7545 2.55939 11.7304 7.08891 11.7604 12.2973C11.8132 21.5292 11.8241 21.7798 12.1931 22.2779C12.9125 23.2488 13.4991 23.5517 14.66 23.5517C15.821 23.5517 16.4075 23.2488 17.127 22.2779C17.4936 21.7833 17.5071 21.5157 17.5571 13.8296L17.6087 5.89209L25.4837 5.84009C33.1092 5.78976 33.3747 5.77607 33.8654 5.40655C34.8286 4.68139 35.1291 4.0902 35.1291 2.92002C35.1291 1.74985 34.8286 1.15865 33.8654 0.433492C33.3702 0.0606422 33.1358 0.0510212 23.6879 0.010498C15.9285 -0.0229937 13.9068 0.0178989 13.4576 0.217184ZM54.5794 0.217184C52.8578 0.980832 52.318 3.33636 53.5317 4.79019C54.4364 5.87377 54.4949 5.88062 62.8381 5.88062H70.4568L70.5084 13.8239C70.5583 21.5157 70.5719 21.7833 70.9385 22.2779C71.6579 23.2488 72.2445 23.5517 73.4054 23.5517C74.5664 23.5517 75.1531 23.2486 75.8724 22.2777C76.2438 21.7764 76.2509 21.5777 76.2509 11.8018C76.2509 2.02592 76.2438 1.82719 75.8724 1.32593C75.6642 1.04486 75.2658 0.643324 74.9872 0.433492C74.492 0.0606422 74.2576 0.0510212 64.8097 0.010498C57.0503 -0.0229937 55.0286 0.0178989 54.5794 0.217184ZM1.70848 29.825C0.494285 30.3596 -0.206254 31.779 0.0540614 33.1775C0.215061 34.0429 1.13204 35.0651 1.96421 35.3073C2.42903 35.4425 15.4924 35.4858 44.4324 35.4483L86.229 35.3941L86.7361 35.0125C87.6993 34.2875 88 33.6961 88 32.526C88 31.3558 87.6993 30.7644 86.7361 30.0394L86.229 29.6579L44.2488 29.6183C9.627 29.5855 2.17018 29.6218 1.70848 29.825ZM13.4576 41.6577C12.7143 41.9977 11.9465 42.9421 11.8134 43.6798C11.7545 44.0077 11.7304 48.5372 11.7604 53.7457C11.8132 62.9775 11.8241 63.2281 12.1931 63.7262C12.4012 64.0071 12.7996 64.4086 13.0785 64.6185C13.5758 64.9928 13.773 65 23.4718 65C33.1707 65 33.3679 64.9928 33.8652 64.6185C34.8284 63.8935 35.1291 63.3021 35.1291 62.1319C35.1291 60.9617 34.8286 60.3706 33.8654 59.6454C33.3747 59.2759 33.1092 59.2622 25.4837 59.2119L17.6087 59.1599L17.5571 51.2223C17.5071 43.5362 17.4936 43.2687 17.127 42.7741C16.9188 42.4932 16.5325 42.1007 16.2687 41.9022C15.6611 41.445 14.2007 41.318 13.4576 41.6577ZM72.2122 41.6587C71.5322 41.976 70.9225 42.6288 70.664 43.3164C70.5368 43.6549 70.4682 46.5211 70.4682 51.4986V59.1599L62.5875 59.2119C54.9562 59.2622 54.6908 59.2759 54.2001 59.6454C53.2368 60.3706 52.9363 60.9617 52.9363 62.1319C52.9363 63.3021 53.237 63.8935 54.2003 64.6185C54.6976 64.9928 54.8948 65 64.5936 65C74.2925 65 74.4897 64.9928 74.987 64.6185C75.2658 64.4086 75.6642 64.0071 75.8724 63.726C76.2438 63.2248 76.2509 63.026 76.2509 53.2501C76.2509 43.4743 76.2438 43.2755 75.8724 42.7743C75.6642 42.4932 75.2779 42.1007 75.0141 41.9022C74.4058 41.4444 72.9437 41.3173 72.2122 41.6587Z" fill="#10054C"/>
</svg>
