<svg width="75" height="75" viewBox="0 0 75 75" fill="none" xmlns="http://www.w3.org/2000/svg">
<path fill-rule="evenodd" clip-rule="evenodd" d="M37.7217 0.0439857C34.3663 0.405744 31.0808 1.61151 28.1716 3.54915C23.6119 6.58613 20.4108 11.3457 19.2206 16.8581C18.8508 18.5703 18.8539 23.4145 19.2259 25.1392C21.0558 33.6254 27.5017 39.9827 35.9968 41.6798C37.7905 42.038 41.9105 42.0366 43.7121 41.6769C52.4773 39.9271 59.0109 33.2556 60.6003 24.4322C60.8969 22.7854 60.8969 19.186 60.6003 17.5392C59.39 10.8205 55.086 5.03092 49.1532 2.14081C47.4568 1.31454 45.5119 0.653757 43.7769 0.314425C42.5895 0.0820965 38.8973 -0.0828057 37.7217 0.0439857ZM42.4201 4.56538C46.0522 5.15463 49.1963 6.79149 51.7696 9.43285C56.7118 14.506 57.881 22.1419 54.6833 28.4612C53.0429 31.7029 50.4708 34.2626 47.248 35.8603C41.8624 38.5302 35.6642 38.1393 30.6137 34.8111C29.4254 34.028 27.4502 32.147 26.4906 30.8845C25.482 29.5575 24.2425 26.9842 23.7702 25.2365C23.405 23.8853 23.374 23.5529 23.374 20.9857C23.374 18.4365 23.4067 18.0802 23.7595 16.778C24.516 13.9858 25.8844 11.5895 27.94 9.4566C31.7097 5.54556 37.1446 3.70965 42.4201 4.56538ZM6.05795 7.19356C5.45545 7.45593 4.85251 8.20173 4.73453 8.83027C4.6082 9.50424 5.00757 10.5571 5.53137 10.93C5.749 11.0851 7.06949 11.7784 8.4656 12.471C11.249 13.8515 11.8096 13.9796 12.6983 13.4376C13.4456 12.9818 13.7856 12.3243 13.7219 11.458C13.6306 10.2168 13.4212 10.0369 10.2022 8.43684C8.59838 7.6396 7.11038 6.98996 6.89552 6.99304C6.68067 6.99626 6.30387 7.08641 6.05795 7.19356ZM69.7446 8.30624C68.2534 9.04603 66.8787 9.79403 66.6896 9.96831C65.2037 11.339 66.0978 13.7276 68.0973 13.7294C68.9803 13.7303 74.1029 11.1766 74.5896 10.4931C75.0838 9.79901 75.1331 8.79875 74.704 8.17344C74.2298 7.48246 73.7043 7.12584 73.0294 7.03686C72.5261 6.97046 72.1238 7.12598 69.7446 8.30624ZM39.0334 9.53106C38.3977 9.81909 37.8103 10.5782 37.7025 11.2515C37.6279 11.7185 37.5372 11.8456 37.2264 11.9184C36.4202 12.1073 35.1133 12.9304 34.4268 13.6818C31.7476 16.6135 32.9525 21.3979 36.7278 22.8192C37.3892 23.0683 38.0238 23.1564 39.62 23.2209C41.4996 23.2968 41.6918 23.3307 42.0015 23.6404C42.4583 24.0973 42.4512 24.869 41.985 25.4115L41.6316 25.8228L39.1637 25.8961C37.5929 25.9427 36.5801 26.0356 36.3775 26.1517C35.5432 26.6294 35.1409 27.7068 35.4329 28.6817C35.6372 29.3634 36.4401 30.0994 37.1187 30.2266C37.5462 30.307 37.6348 30.3948 37.7138 30.8159C37.8865 31.7364 38.9536 32.6388 39.8691 32.6388C40.0478 32.6388 40.4665 32.5068 40.7994 32.3456C41.4538 32.0287 42.0452 31.178 42.0452 30.5532C42.0452 30.2561 42.1539 30.1614 42.6681 30.0109C44.1307 29.5824 45.5677 28.304 46.269 26.8075C46.613 26.0736 46.6618 25.7872 46.6618 24.5036C46.6618 23.22 46.613 22.9336 46.269 22.1997C45.7207 21.0297 44.6913 19.9809 43.5297 19.4086C42.6152 18.9582 42.4547 18.929 40.4366 18.8463C39.2659 18.7984 38.1964 18.7105 38.0603 18.6508C37.4683 18.3918 37.1764 17.4166 37.5063 16.8001C37.8255 16.2035 38.3899 16.0753 40.6972 16.0753C42.7238 16.0753 42.9171 16.0512 43.3792 15.7425C44.283 15.1386 44.6413 13.9081 44.1756 13.0072C43.8682 12.413 43.1759 11.8768 42.5686 11.7627C42.1481 11.6839 42.0452 11.5981 42.0452 11.3265C42.0452 10.9174 41.5253 10.1227 41.0065 9.73847C40.5123 9.37232 39.5967 9.27616 39.0334 9.53106ZM8.15592 29.6705C5.4427 31.044 5.3193 31.1255 4.99365 31.7593C4.44361 32.8298 4.7105 33.8284 5.75531 34.6085C6.56255 35.2112 7.23144 35.0528 10.2798 33.5358C13.3583 32.0041 13.6297 31.7668 13.721 30.5268C13.7858 29.646 13.4503 28.9923 12.6983 28.5338C11.7777 27.9724 11.2502 28.1043 8.15592 29.6705ZM66.9451 28.5741C66.2552 29.035 65.9041 29.7649 65.9747 30.5909C66.0744 31.7568 66.308 31.952 69.5157 33.5479C72.1103 34.8388 72.5233 35.0018 73.0294 34.9348C73.7044 34.8455 74.23 34.4887 74.704 33.7979C74.9761 33.4014 75.0337 33.1585 74.9837 32.6209C74.8741 31.4421 74.5526 31.1674 71.4859 29.6327C68.3834 28.0801 67.8651 27.9594 66.9451 28.5741ZM59.04 45.0794C57.6753 45.3786 55.954 46.113 54.8433 46.87C54.4544 47.1351 53.2706 48.2004 52.2126 49.2373L50.2889 51.1226L49.8992 50.4576C48.9382 48.8173 46.9679 47.4861 45.0137 47.1565C44.2995 47.036 41.5022 47.0024 35.4406 47.0414C26.0237 47.1021 26.3064 47.0766 24.3183 48.048C22.8529 48.764 21.1716 50.5177 20.3309 52.2071C19.9698 52.9327 19.6352 53.677 19.5873 53.8612C19.5021 54.188 19.4618 54.1949 17.839 54.1543L16.1778 54.1127L16.1024 52.427C16.019 50.5633 15.9037 50.2607 15.0786 49.7436C14.5705 49.4252 14.5042 49.4221 8.01786 49.4221C1.63337 49.4221 1.46014 49.4296 1.06546 49.7244C0.842838 49.8906 0.524808 50.2087 0.358612 50.4313C0.0603666 50.8306 0.0558233 50.9836 0.017132 62.0393C-0.0215592 73.0515 -0.0171625 73.2525 0.275513 73.8263C0.46809 74.2038 0.77762 74.5142 1.15178 74.7052C1.70504 74.9875 2.00504 75.0003 8.07458 75C15.148 74.9998 15.0919 75.0072 15.7718 73.9892C16.0665 73.548 16.1045 73.3101 16.1045 71.9048V70.3184L32.1892 70.2719C50.2493 70.2197 48.8343 70.307 51.205 69.101C52.33 68.5288 52.7376 68.145 61.2719 59.6231C71.1265 49.7826 70.6456 50.3623 70.112 48.9648C69.6291 47.7001 66.6858 45.7761 64.322 45.1798C62.8086 44.798 60.522 44.7546 59.04 45.0794ZM62.8564 49.3579C63.2191 49.4397 63.8014 49.614 64.1505 49.7452L64.7851 49.984L57.4119 57.3593C49.5938 65.1797 49.3443 65.394 47.6438 65.7498C47.1038 65.8628 42.1808 65.9123 31.4859 65.9123H16.1045V62.2609V58.6095L19.0723 58.5598C21.7402 58.5151 22.0914 58.4799 22.5479 58.2118C23.2454 57.8019 23.5833 57.1547 23.7363 55.9354C23.9777 54.0127 24.8379 52.7637 26.4762 51.9568L27.456 51.4743L35.699 51.4309C41.3123 51.4013 44.1309 51.4382 44.5343 51.547C47.0966 52.2369 47.0364 55.7915 44.4521 56.391C44.1358 56.4643 41.9249 56.5258 39.5388 56.5277C35.2833 56.5313 35.1911 56.5376 34.7172 56.8611C33.3224 57.8132 33.4047 59.6936 34.8793 60.5622C35.3392 60.8332 35.6874 60.8589 39.4804 60.9011C44.424 60.9562 45.5136 60.8404 47.0282 60.0996C48.0371 59.6061 48.5065 59.1861 52.7439 54.9864C57.6275 50.1464 57.9952 49.8545 59.7454 49.4302C60.758 49.1847 61.963 49.1567 62.8564 49.3579ZM11.7077 62.1746V70.6029H8.0438H4.37986V62.1746V53.7462H8.0438H11.7077V62.1746Z" fill="#9791B7"/>
</svg>
