<svg width="65" height="65" viewBox="0 0 65 65" fill="none" xmlns="http://www.w3.org/2000/svg">
<path fill-rule="evenodd" clip-rule="evenodd" d="M44.3912 0.210221C44.1359 0.348964 43.7929 0.678543 43.6288 0.942434C43.3318 1.4199 43.3303 1.4443 43.2928 6.07923L43.2554 10.7363L41.768 10.8181C37.5807 11.0482 34.1206 11.946 30.6871 13.693C22.5933 17.8112 17.2462 25.6575 16.3333 34.7556C16.1333 36.7492 16.1604 41.5451 16.3746 42.0578C16.8749 43.2548 18.5078 43.6613 19.4915 42.8337C19.6978 42.6602 20.1079 42.0765 20.4027 41.5365C23.6263 35.6329 29.0258 31.6312 35.7063 30.1948C36.7391 29.9727 37.5646 29.9091 40.1161 29.8549L43.2551 29.7882L43.2928 34.4727C43.3303 39.1382 43.3317 39.1592 43.6292 39.6377C44.2015 40.5582 45.5126 40.8808 46.3778 40.314C46.966 39.9286 64.6405 21.5021 64.8192 21.0879C65.0436 20.5679 65.0436 20.0116 64.8192 19.4916C64.6395 19.075 46.9642 0.649702 46.3725 0.262059C45.8727 -0.0653592 44.9426 -0.0897536 44.3912 0.210221ZM6.80288 10.9064C3.85527 11.3376 1.20931 13.6546 0.295181 16.6052L0 17.5581V37.9503V58.3425L0.281839 59.2318C0.677022 60.4791 1.3853 61.6276 2.35624 62.5957C3.31345 63.5502 4.22669 64.1261 5.54846 64.6089L6.48051 64.9493L32.0525 64.9828C60.6346 65.0204 58.5829 65.0841 60.5413 64.0983C62.3965 63.1643 63.9455 61.3535 64.6495 59.2954L64.9321 58.4695L64.9695 46.717C64.9983 37.6845 64.9706 34.8331 64.8501 34.3969C64.5273 33.2301 63.1749 32.3568 61.9455 32.5217C61.1643 32.6264 60.352 33.1692 59.9481 33.8562L59.5953 34.4563L59.5317 46.1562L59.4682 57.8562L59.1208 58.3534C58.9298 58.6269 58.5623 58.9936 58.3041 59.1683L57.835 59.4859H32.4645H7.09412L6.59678 59.1386C6.3232 58.9476 5.95635 58.5802 5.78163 58.3221L5.46396 57.8529L5.43105 38.0522C5.3989 18.7496 5.40423 18.2395 5.64173 17.7776C5.95482 17.169 6.48356 16.6705 7.08002 16.4213C7.47749 16.2553 8.27955 16.224 12.1351 16.224C15.9906 16.224 16.7926 16.1927 17.1901 16.0267C18.2022 15.604 18.8697 14.6225 18.8697 13.5569C18.8697 12.4356 18.3879 11.6248 17.4084 11.0977C16.9167 10.8331 16.7489 10.8236 12.2621 10.8053C9.71123 10.7948 7.25461 10.8403 6.80288 10.9064Z" fill="#9791B7"/>
</svg>
