<svg width="51" height="38" viewBox="0 0 51 38" fill="none" xmlns="http://www.w3.org/2000/svg">
<path fill-rule="evenodd" clip-rule="evenodd" d="M47.3738 0.383869C47.1017 0.485048 46.7322 0.702982 46.5529 0.868396C46.3735 1.03368 40.6411 7.36716 33.8142 14.9427C24.6112 25.1551 21.2301 28.8246 20.7377 29.1348C19.9523 29.6297 19.0883 29.6912 18.2599 29.3114C17.9642 29.176 14.8943 26.5095 11.0508 23.0498C6.61554 19.0575 4.16586 16.9397 3.79111 16.7739C2.02153 15.9906 0.00748612 17.2992 1.95418e-05 19.2372C-0.00152527 19.6365 0.0887172 20.1733 0.200587 20.4302C0.343868 20.759 2.94945 23.2969 8.98914 28.9905C13.7109 33.4418 17.8153 37.2285 18.1101 37.4055C18.9133 37.8876 20.0052 37.8615 20.804 37.3412C21.4828 36.899 50.2859 4.99138 50.6921 4.23176C51.5879 2.556 50.4293 0.453381 48.5053 0.263123C48.1183 0.224763 47.6748 0.272134 47.3738 0.383869Z" fill="white"/>
</svg>
