<svg width="95" height="95" viewBox="0 0 95 95" fill="none" xmlns="http://www.w3.org/2000/svg">
<path d="M24.5022 30.9143C23.5522 30.9143 22.6814 30.4789 22.0876 29.6872C21.4147 28.7768 21.3355 27.5892 21.8501 26.5996C22.523 25.2538 23.473 23.9477 24.7001 22.7602L37.5647 9.85596C44.1355 3.32471 54.823 3.32471 61.3939 9.85596L68.3209 16.9019C71.2501 19.7915 73.0314 23.6707 73.2293 27.7873C73.2689 28.6977 72.9126 29.5685 72.2397 30.1622C71.5668 30.756 70.6563 31.033 69.7855 30.8747C68.9938 30.7559 68.1626 30.7165 67.2918 30.7165H27.7084C26.7584 30.7165 25.848 30.7956 24.9376 30.9143C24.8189 30.9143 24.6605 30.9143 24.5022 30.9143ZM31.1126 24.7393H66.5793C66.0647 23.3935 65.2334 22.1664 64.1251 21.0581L57.1584 14.0122C52.923 9.81633 45.9959 9.81633 41.7209 14.0122L31.1126 24.7393Z" fill="white"/>
<path d="M19.7918 94.0104C13.221 94.0104 7.046 90.5271 3.721 84.8667C1.93975 82.0167 0.989746 78.6521 0.989746 75.2083C0.989746 64.8375 9.421 56.4062 19.7918 56.4062C30.1627 56.4062 38.5939 64.8375 38.5939 75.2083C38.5939 78.6521 37.6439 82.0167 35.8627 84.9063C32.5377 90.5271 26.3627 94.0104 19.7918 94.0104ZM19.7918 62.3438C12.7064 62.3438 6.92725 68.1229 6.92725 75.2083C6.92725 77.5438 7.56058 79.8395 8.78766 81.8187C11.1231 85.777 15.2397 88.0729 19.7918 88.0729C24.3439 88.0729 28.4606 85.7375 30.796 81.8583C32.0231 79.8396 32.6564 77.5833 32.6564 75.2083C32.6564 68.1229 26.8772 62.3438 19.7918 62.3438Z" fill="white"/>
<path d="M25.6887 78.0981H13.8928C12.2699 78.0981 10.9241 76.7523 10.9241 75.1294C10.9241 73.5065 12.2699 72.1606 13.8928 72.1606H25.7282C27.3512 72.1606 28.697 73.5065 28.697 75.1294C28.697 76.7523 27.3512 78.0981 25.6887 78.0981Z" fill="white"/>
<path d="M19.7915 84.1542C18.1686 84.1542 16.8228 82.8084 16.8228 81.1855V69.3501C16.8228 67.7272 18.1686 66.3813 19.7915 66.3813C21.4144 66.3813 22.7603 67.7272 22.7603 69.3501V81.1855C22.7603 82.848 21.4144 84.1542 19.7915 84.1542Z" fill="white"/>
<path d="M67.2916 90.0518H30.202C28.9353 90.0518 27.827 89.2601 27.3916 88.1122C26.9562 86.9247 27.3124 85.6184 28.2624 84.8267C29.2124 84.0351 30.0832 83.0059 30.7166 81.8976C31.9832 79.8788 32.6166 77.583 32.6166 75.2476C32.6166 68.1622 26.8374 62.383 19.752 62.383C16.0707 62.383 12.5478 63.9663 10.0937 66.7767C9.2624 67.6872 7.95615 68.0435 6.80824 67.6081C5.66032 67.1727 4.86865 66.0643 4.86865 64.8372V47.4997C4.86865 35.308 12.3895 26.481 24.0666 25.0164C25.1353 24.858 26.3624 24.7393 27.6291 24.7393H67.2124C68.1624 24.7393 69.3895 24.7788 70.6562 24.9767C82.3332 26.3226 89.9728 35.1893 89.9728 47.4997V67.2913C90.052 80.908 80.9082 90.0518 67.2916 90.0518ZM36.3374 84.1143H67.2916C77.5041 84.1143 84.1145 77.5038 84.1145 67.2913V47.4997C84.1145 38.2372 78.6916 31.8642 69.9041 30.835C68.9541 30.6767 68.1228 30.6768 67.2916 30.6768H27.7082C26.7582 30.6768 25.8478 30.7559 24.9374 30.8746C16.2291 31.983 10.8853 38.3163 10.8853 47.4997V58.6622C13.577 57.1976 16.6645 56.4059 19.7916 56.4059C30.1624 56.4059 38.5937 64.8372 38.5937 75.208C38.5937 78.3351 37.802 81.4226 36.3374 84.1143Z" fill="white"/>
<path d="M87.0832 68.2816H75.2082C69.1915 68.2816 64.3228 63.4128 64.3228 57.3962C64.3228 51.3795 69.1915 46.5107 75.2082 46.5107H87.0832C88.7061 46.5107 90.0519 47.8566 90.0519 49.4795C90.0519 51.1024 88.7061 52.4482 87.0832 52.4482H75.2082C72.4769 52.4482 70.2603 54.6649 70.2603 57.3962C70.2603 60.1274 72.4769 62.3441 75.2082 62.3441H87.0832C88.7061 62.3441 90.0519 63.6899 90.0519 65.3128C90.0519 66.9357 88.7061 68.2816 87.0832 68.2816Z" fill="white"/>
</svg>
