<svg width="95" height="95" viewBox="0 0 95 95" fill="none" xmlns="http://www.w3.org/2000/svg">
<path d="M47.4998 90.0524C24.0269 90.0524 4.94775 70.9732 4.94775 47.5003C4.94775 24.0274 24.0269 4.94824 47.4998 4.94824C70.9727 4.94824 90.0519 24.0274 90.0519 47.5003C90.0519 70.9732 70.9727 90.0524 47.4998 90.0524ZM47.4998 10.8857C27.3123 10.8857 10.8853 27.3128 10.8853 47.5003C10.8853 67.6878 27.3123 84.1149 47.4998 84.1149C67.6873 84.1149 84.1144 67.6878 84.1144 47.5003C84.1144 27.3128 67.6873 10.8857 47.4998 10.8857Z" fill="white"/>
<path d="M62.1854 63.0562C61.6708 63.0562 61.1562 62.9375 60.6812 62.6208L48.4104 55.2979C45.3624 53.477 43.1062 49.4791 43.1062 45.9562V29.7271C43.1062 28.1041 44.452 26.7583 46.075 26.7583C47.6979 26.7583 49.0437 28.1041 49.0437 29.7271V45.9562C49.0437 47.3812 50.2312 49.4791 51.4583 50.1916L63.7291 57.5145C65.1541 58.3458 65.5895 60.1666 64.7583 61.5916C64.1645 62.5416 63.1749 63.0562 62.1854 63.0562Z" fill="white"/>
</svg>
