<svg width="80" height="80" viewBox="0 0 80 80" fill="none" xmlns="http://www.w3.org/2000/svg">
<path d="M42.9337 69.5333H22.7003C10.867 69.5333 6.66699 61.2333 6.66699 53.5V26.5C6.66699 14.9667 11.167 10.4667 22.7003 10.4667H42.9337C54.467 10.4667 58.967 14.9667 58.967 26.5V53.5C58.967 65.0333 54.467 69.5333 42.9337 69.5333ZM22.7003 15.5333C14.0003 15.5333 11.7337 17.8 11.7337 26.5V53.5C11.7337 57.6 13.167 64.4667 22.7003 64.4667H42.9337C51.6337 64.4667 53.9003 62.2 53.9003 53.5V26.5C53.9003 17.8 51.6337 15.5333 42.9337 15.5333H22.7003V15.5333Z" fill="#10054C"/>
<path d="M69.2664 60.3667C67.8331 60.3667 65.9998 59.9 63.8998 58.4333L54.9998 52.2C54.3331 51.7333 53.9331 50.9667 53.9331 50.1333V29.8667C53.9331 29.0333 54.3331 28.2667 54.9998 27.8L63.8998 21.5667C67.8664 18.8 70.7664 19.6 72.1331 20.3C73.4998 21.0333 75.8331 22.9333 75.8331 27.7667V52.2C75.8331 57.0333 73.4998 58.9667 72.1331 59.6667C71.4998 60.0333 70.4998 60.3667 69.2664 60.3667ZM58.9664 48.8L66.7998 54.2667C68.2998 55.3 69.3664 55.4 69.7998 55.1667C70.2664 54.9333 70.7664 54 70.7664 52.2V27.8C70.7664 25.9667 70.2331 25.0667 69.7998 24.8333C69.3664 24.6 68.2998 24.7 66.7998 25.7333L58.9664 31.2V48.8Z" fill="#292D32"/>
<path d="M38.333 39.1667C34.1997 39.1667 30.833 35.8 30.833 31.6667C30.833 27.5333 34.1997 24.1667 38.333 24.1667C42.4663 24.1667 45.833 27.5333 45.833 31.6667C45.833 35.8 42.4663 39.1667 38.333 39.1667ZM38.333 29.1667C36.9663 29.1667 35.833 30.3 35.833 31.6667C35.833 33.0333 36.9663 34.1667 38.333 34.1667C39.6997 34.1667 40.833 33.0333 40.833 31.6667C40.833 30.3 39.6997 29.1667 38.333 29.1667Z" fill="#292D32"/>
</svg>
