<svg width="52" height="52" viewBox="0 0 52 52" fill="none" xmlns="http://www.w3.org/2000/svg">
<path fill-rule="evenodd" clip-rule="evenodd" d="M23.4166 1.06249C19.3215 1.52994 15.42 2.94308 12.1419 5.14594C10.55 6.21565 9.7499 6.86973 8.38704 8.21517C4.58685 11.9668 2.15644 16.6648 1.23463 22.0411C1.03167 23.2251 1 23.759 1 26.0058C1 28.2525 1.03167 28.7865 1.23463 29.9705C2.94607 39.952 10.1559 47.8298 19.8299 50.2885C22.0721 50.8584 23.2945 50.9995 25.9915 51C28.6459 51.0004 29.7846 50.8729 31.9956 50.328C36.0613 49.3259 40.0166 47.1898 42.9955 44.3875C45.3931 42.132 47.0681 39.8802 48.451 37.0531C49.6821 34.5367 50.3931 32.2885 50.8021 29.6204C51.067 27.8919 51.0657 24.1055 50.7998 22.3912C50.3787 19.6772 49.6839 17.4787 48.451 14.9584C46.0659 10.0828 42.2893 6.23499 37.448 3.74837C34.9753 2.47828 32.8779 1.77257 30.1668 1.29871C28.9596 1.08774 28.2813 1.03428 26.4498 1.00628C25.2176 0.987344 23.8527 1.0127 23.4166 1.06249ZM24.9732 8.03474V12.973L24.6931 12.9719C24.0077 12.9695 21.3552 12.7526 20.2887 12.6118C19.1929 12.4671 17.315 12.1575 17.26 12.1123C17.2464 12.1012 17.3984 11.6877 17.5977 11.1935C18.5829 8.75073 19.9251 6.60622 21.3589 5.18381C22.3089 4.24148 22.9954 3.76792 24.0259 3.34425C25.0742 2.91335 24.9732 2.41332 24.9732 8.03474ZM28.4865 3.5988C30.3134 4.49877 31.9225 6.28763 33.3774 9.03603C33.8941 10.012 34.7851 12.0548 34.7219 12.118C34.6753 12.1646 32.3087 12.5452 31.3379 12.6622C30.4329 12.7714 27.8334 12.9703 27.2899 12.972L27.0099 12.973V8.02202V3.07107L27.3408 3.1343C27.5229 3.16902 28.0384 3.37805 28.4865 3.5988ZM19.6619 3.98744C19.5799 4.08539 19.3159 4.39472 19.0755 4.67472C17.9353 6.00223 16.4721 8.56003 15.6509 10.6606L15.2613 11.6573L14.9491 11.5937C14.3094 11.4637 11.2479 10.3987 10.4685 10.0351L9.66059 9.65825L10.8249 8.65604C13.0258 6.7615 15.6925 5.20896 18.3679 4.26449C19.8048 3.75733 19.8655 3.7443 19.6619 3.98744ZM33.4906 4.2204C36.136 5.12068 38.9168 6.72983 41.1582 8.65716L42.3225 9.65825L41.5146 10.0351C40.7352 10.3987 37.6737 11.4637 37.0339 11.5937L36.7217 11.6573L36.3285 10.6606C35.4722 8.48967 34.0563 6.01221 32.9076 4.67472C32.2158 3.86913 32.1687 3.80926 32.2273 3.80926C32.2578 3.80926 32.8262 3.99426 33.4906 4.2204ZM9.63972 11.8517C10.86 12.4143 13.9375 13.4821 14.3385 13.4821C14.6035 13.4821 14.5902 13.7041 14.2436 15.084C13.6184 17.572 13.1774 20.668 13.0032 23.7912L12.9365 24.9876H7.94202H2.9475L3.01766 24.0578C3.33672 19.8323 5.19338 15.1151 7.85159 11.7763L8.27736 11.2414L8.60568 11.3839C8.78634 11.4623 9.25162 11.6727 9.63972 11.8517ZM45.1522 13.2153C46.4339 15.1278 47.5183 17.4432 48.1283 19.5697C48.5819 21.1512 49.0063 23.5844 49.0063 24.6031V24.9876H44.0265H39.0465L38.9798 23.7912C38.8057 20.668 38.3646 17.572 37.7395 15.084C37.5458 14.313 37.4151 13.6371 37.4491 13.5821C37.4831 13.5271 37.5884 13.4816 37.6831 13.4811C38.0315 13.4792 41.4537 12.268 42.5398 11.7622L43.66 11.2406L44.0007 11.6231C44.1881 11.8335 44.7062 12.55 45.1522 13.2153ZM18.2594 14.3413C19.957 14.6281 22.722 14.9075 23.8638 14.9075C24.2968 14.9075 24.7235 14.9353 24.8121 14.9693C24.956 15.0245 24.9732 15.5637 24.9732 20.0094V24.9876H19.9681H14.963L15.0346 23.5388C15.168 20.8469 15.5595 18.133 16.1809 15.5948C16.3972 14.7115 16.5983 14.093 16.6693 14.093C16.7357 14.093 17.4512 14.2047 18.2594 14.3413ZM35.8002 15.5948C36.4274 18.1704 36.8155 20.8559 36.9484 23.5388L37.0201 24.9876H32.015H27.0099V20.0094C27.0099 15.5637 27.0271 15.0245 27.171 14.9693C27.2596 14.9353 27.6828 14.9075 28.1115 14.9075C29.2458 14.9075 32.05 14.6241 33.5783 14.3549C35.6392 13.9921 35.3738 13.8439 35.8002 15.5948ZM13.0032 28.2203C13.1774 31.3435 13.6184 34.4396 14.2436 36.9276C14.4373 37.6986 14.5712 38.3693 14.5411 38.4179C14.511 38.4666 14.3272 38.5362 14.1328 38.5728C13.492 38.6929 10.9896 39.5631 9.95245 40.0265C9.39236 40.2766 8.78634 40.5462 8.60568 40.6257L8.27736 40.7701L7.85159 40.2353C5.19338 36.8964 3.33672 32.1793 3.01766 27.9538L2.9475 27.024H7.94202H12.9365L13.0032 28.2203ZM24.9732 32.0012V36.9785L24.744 37.0399C24.618 37.0736 24.1913 37.1019 23.7956 37.1026C22.7064 37.1048 19.9081 37.3917 18.2594 37.6703C17.4512 37.8069 16.7357 37.9186 16.6693 37.9186C16.5983 37.9186 16.3972 37.3001 16.1809 36.4168C15.5595 33.8785 15.168 31.1646 15.0346 28.4728L14.963 27.024H19.9681H24.9732V32.0012ZM36.9484 28.4728C36.8155 31.1557 36.4274 33.8412 35.8002 36.4168C35.5848 37.3011 35.3848 37.9186 35.3137 37.9186C35.2473 37.9186 34.5319 37.8069 33.7237 37.6703C32.0261 37.3834 29.2611 37.1041 28.1193 37.1041C27.6863 37.1041 27.2596 37.0763 27.171 37.0422C27.0271 36.9871 27.0099 36.4478 27.0099 32.0022V27.024H32.015H37.0201L36.9484 28.4728ZM49.0063 27.4084C49.0063 28.4382 48.5714 30.9286 48.131 32.4204C47.3125 35.1926 45.8123 38.1241 44.1315 40.2353L43.7057 40.7701L43.3774 40.6257C43.1967 40.5462 42.5907 40.2766 42.0306 40.0265C40.9934 39.5631 38.491 38.6929 37.8503 38.5728C37.6559 38.5362 37.472 38.4666 37.442 38.4179C37.4119 38.3693 37.5458 37.6986 37.7395 36.9276C38.3611 34.4536 38.8024 31.3541 38.9791 28.2203L39.0465 27.024H44.0265H49.0063V27.4084ZM24.9732 43.9896V48.9405L24.6422 48.8773C24.0681 48.7677 22.7078 48.033 22.0094 47.4552C20.7992 46.454 19.6378 44.9254 18.6056 42.9755C18.0987 42.0179 17.197 39.9563 17.2591 39.8966C17.3002 39.8571 19.7522 39.4617 20.6961 39.3423C21.6102 39.2267 23.5405 39.0776 24.4385 39.0532L24.9732 39.0386V43.9896ZM28.9957 39.1396C29.7798 39.1942 30.8338 39.2886 31.3379 39.3494C32.3087 39.4664 34.6753 39.847 34.7219 39.8936C34.7851 39.9568 33.8941 41.9996 33.3774 42.9755C32.3452 44.9254 31.1838 46.454 29.9737 47.4552C29.2752 48.033 27.915 48.7677 27.3408 48.8773L27.0099 48.9405V43.9896V39.0386L27.2899 39.0395C27.4439 39.04 28.2115 39.085 28.9957 39.1396ZM15.6525 41.355C16.5073 43.5418 17.9183 45.9771 19.2056 47.487C19.5147 47.8497 19.7544 48.1597 19.7382 48.1757C19.647 48.267 17.0774 47.274 15.8589 46.6768C13.7704 45.6531 12.0708 44.4915 10.1633 42.784L9.6612 42.3347L10.7233 41.8706C11.8835 41.3636 14.655 40.4276 15.1543 40.3741C15.2149 40.3676 15.439 40.8089 15.6525 41.355ZM39.0265 41.0405C39.9506 41.348 41.0703 41.7692 41.5146 41.9765L42.3225 42.3533L41.1582 43.3544C38.9155 45.2829 36.1361 46.8908 33.4864 47.7927C32.8197 48.0196 32.261 48.1919 32.2448 48.1757C32.2286 48.1597 32.4684 47.8497 32.7774 47.487C34.0746 45.9655 35.4367 43.6119 36.3285 41.351L36.7217 40.3543L37.0339 40.4179C37.2056 40.4527 38.1023 40.7329 39.0265 41.0405Z" fill="#7058EE" stroke="#7058EE"/>
</svg>
