<svg width="95" height="95" viewBox="0 0 95 95" fill="none" xmlns="http://www.w3.org/2000/svg">
<path d="M57.3957 36.6143H7.9165C6.29359 36.6143 4.94775 35.2684 4.94775 33.6455C4.94775 32.0226 6.29359 30.6768 7.9165 30.6768H57.3957C59.0186 30.6768 60.3644 32.0226 60.3644 33.6455C60.3644 35.2684 59.0186 36.6143 57.3957 36.6143Z" fill="white"/>
<path d="M31.6667 68.2812H23.75C22.1271 68.2812 20.7812 66.9354 20.7812 65.3125C20.7812 63.6896 22.1271 62.3438 23.75 62.3438H31.6667C33.2896 62.3438 34.6354 63.6896 34.6354 65.3125C34.6354 66.9354 33.2896 68.2812 31.6667 68.2812Z" fill="white"/>
<path d="M57.3958 68.2812H41.5625C39.9396 68.2812 38.5938 66.9354 38.5938 65.3125C38.5938 63.6896 39.9396 62.3438 41.5625 62.3438H57.3958C59.0188 62.3438 60.3646 63.6896 60.3646 65.3125C60.3646 66.9354 59.0188 68.2812 57.3958 68.2812Z" fill="white"/>
<path d="M69.5082 84.1149H25.4915C9.73734 84.1149 4.94775 79.3649 4.94775 63.7691V31.2316C4.94775 15.6357 9.73734 10.8857 25.4915 10.8857H57.3957C59.0186 10.8857 60.3644 12.2316 60.3644 13.8545C60.3644 15.4774 59.0186 16.8232 57.3957 16.8232H25.4915C13.0623 16.8232 10.8853 18.9607 10.8853 31.2316V63.7295C10.8853 76.0003 13.0623 78.1378 25.4915 78.1378H69.4686C81.8977 78.1378 84.0748 76.0003 84.0748 63.7295V55.4962C84.0748 53.8732 85.4207 52.5274 87.0436 52.5274C88.6665 52.5274 90.0123 53.8732 90.0123 55.4962V63.7295C90.0519 79.3649 85.2623 84.1149 69.5082 84.1149Z" fill="white"/>
<path d="M79.1665 40.5728C77.5436 40.5728 76.1978 39.2269 76.1978 37.604V13.854C76.1978 12.6665 76.9103 11.5582 78.0186 11.1228C79.1269 10.6873 80.3936 10.9248 81.2644 11.7561L89.1811 19.6728C90.329 20.8207 90.329 22.7207 89.1811 23.8686C88.0332 25.0165 86.1332 25.0165 84.9853 23.8686L82.1353 21.0186V37.604C82.1353 39.2269 80.7894 40.5728 79.1665 40.5728Z" fill="white"/>
<path d="M71.2501 24.7393C70.498 24.7393 69.7459 24.4622 69.1522 23.8685C68.0043 22.7205 68.0043 20.8205 69.1522 19.6726L77.0689 11.756C78.2168 10.608 80.1168 10.608 81.2647 11.756C82.4126 12.9039 82.4126 14.8039 81.2647 15.9518L73.348 23.8685C72.7543 24.4622 72.0022 24.7393 71.2501 24.7393Z" fill="white"/>
</svg>
